if (_typeface_js && _typeface_js.loadFace) _typeface_js.loadFace({"glyphs":{"S":{"x_min":-4.109375,"x_max":732,"ha":752,"o":"m 732 319 q 698 444 732 394 q 613 529 665 495 q 500 585 561 563 q 381 625 438 607 q 339 639 361 631 q 297 659 317 648 q 264 689 277 671 q 252 731 252 706 q 262 768 252 752 q 287 796 272 784 q 322 813 303 807 q 359 819 341 819 q 421 809 391 819 q 477 790 450 800 q 529 771 504 780 q 579 762 554 762 q 642 790 617 762 q 668 856 668 819 q 637 929 668 899 q 563 977 606 959 q 472 1003 519 995 q 391 1011 424 1011 q 263 991 327 1011 q 148 933 199 972 q 65 837 97 894 q 34 709 34 781 q 69 578 34 627 q 159 497 104 528 q 277 446 213 466 q 395 405 340 427 q 429 390 409 399 q 466 369 448 381 q 497 342 484 357 q 510 309 510 327 q 497 257 510 281 q 465 217 485 234 q 419 192 444 201 q 367 183 393 183 q 281 196 323 183 q 193 226 238 209 q 159 237 179 230 q 117 253 139 245 q 78 267 96 260 q 52 278 60 274 l 52 277 q 49 269 49 274 q 42 249 46 262 q 36 230 39 237 q 27 198 34 219 q 15 156 21 178 q 3 114 9 134 q -4 82 -2 94 q 76 49 28 66 q 176 18 125 32 q 277 -3 228 5 q 361 -13 326 -13 q 532 23 453 -13 q 668 132 612 59 q 714 220 697 173 q 732 319 732 267 "},"¦":{"x_min":-18,"x_max":830.28125,"ha":843,"o":"m 464 1012 q 434 1086 464 1056 q 362 1116 404 1116 q 291 1085 320 1116 q 263 1012 263 1055 q 292 940 263 970 q 362 911 321 911 q 434 940 404 911 q 464 1012 464 969 m 190 1013 q 160 1085 190 1055 q 90 1116 131 1116 q 18 1086 48 1116 q -11 1014 -11 1057 q 17 940 -11 970 q 89 911 46 911 q 160 940 131 911 q 190 1013 190 970 m 830 170 q 821 207 830 190 q 801 239 812 223 l 686 398 l 804 555 q 822 586 815 570 q 830 622 830 602 q 807 681 830 655 q 751 707 785 707 q 706 693 728 707 q 669 661 684 680 l 518 464 q 516 445 516 462 q 516 409 516 429 q 516 373 516 390 q 516 354 516 357 q 519 345 516 351 q 527 332 522 339 q 536 320 532 326 q 541 311 540 314 l 671 129 q 703 97 684 109 q 745 86 722 86 q 805 111 779 86 q 830 170 830 136 m 343 103 l 343 753 q 334 793 343 773 q 312 827 326 812 q 279 850 298 841 q 239 860 261 860 q 164 829 195 860 q 133 752 133 798 l 133 103 l 343 103 m 494 -36 q 474 18 494 -4 q 422 41 454 41 q 410 40 416 41 q 397 36 404 39 q 320 -4 361 17 q 243 -26 278 -26 q 186 -14 214 -26 q 134 8 158 -3 q 88 31 109 21 q 52 42 67 42 q 1 16 21 42 q -18 -39 -18 -9 q 17 -109 -18 -84 q 51 -130 26 -118 q 103 -151 75 -141 q 156 -170 130 -162 q 195 -180 181 -178 q 216 -184 206 -181 q 235 -187 225 -187 q 258 -184 246 -187 q 280 -180 269 -181 q 320 -170 294 -178 q 374 -151 347 -162 q 425 -129 401 -141 q 458 -107 449 -117 q 494 -36 494 -81 m 404 976 q 389 961 404 961 q 374 976 374 961 q 389 992 374 992 q 404 976 404 992 m 137 976 q 122 961 137 961 q 106 976 106 961 q 122 992 106 992 q 137 976 137 992 "},"/":{"x_min":5,"x_max":563,"ha":589,"o":"m 563 1007 q 539 1023 563 1011 q 486 1047 515 1035 q 434 1069 458 1060 q 411 1078 411 1078 q 406 1069 411 1077 q 397 1050 402 1061 q 390 1035 391 1039 l 19 96 q 11 72 17 91 q 5 46 5 53 q 12 2 5 19 q 34 -22 20 -14 q 68 -32 48 -30 q 112 -35 88 -35 q 139 5 118 -35 q 190 107 161 46 q 250 241 218 169 q 310 378 282 314 q 355 485 337 441 q 377 535 374 530 q 378 538 377 536 q 392 573 378 538 q 427 660 406 609 q 471 772 447 711 q 515 884 495 832 q 549 971 535 936 q 563 1007 563 1006 "},"y":{"x_min":-20.59375,"x_max":644,"ha":645,"o":"m 644 654 q 612 727 644 698 q 539 757 581 757 q 475 731 498 757 q 439 669 451 705 l 321 304 l 168 744 l -20 665 l 214 48 q 198 12 212 43 q 168 -54 185 -17 q 138 -126 152 -91 q 120 -174 125 -160 q 106 -237 106 -212 q 138 -305 106 -278 q 209 -333 170 -333 q 271 -310 247 -333 q 308 -252 295 -287 q 330 -214 314 -248 q 367 -126 345 -180 q 415 -6 389 -73 q 469 132 442 61 q 522 275 496 204 q 569 408 548 347 q 605 514 590 469 q 626 580 620 559 q 639 623 635 604 q 644 654 644 643 "},"Á":{"x_min":-33,"x_max":889.46875,"ha":887,"o":"m 605 1222 q 582 1277 605 1254 q 528 1300 560 1300 q 497 1293 511 1300 q 453 1280 486 1291 q 382 1253 420 1268 q 314 1225 345 1239 q 280 1205 284 1211 q 243 1176 257 1196 q 230 1132 230 1156 q 253 1077 230 1100 q 308 1055 277 1055 q 340 1061 322 1055 q 364 1069 346 1063 q 405 1084 382 1075 q 454 1102 429 1092 q 501 1122 480 1113 q 538 1139 523 1132 q 556 1150 553 1146 q 591 1178 577 1158 q 605 1222 605 1199 m 889 32 l 576 883 q 515 975 554 941 q 412 1008 476 1008 q 312 973 352 1008 q 253 883 273 937 l -20 148 q -29 119 -26 134 q -33 89 -33 104 q 0 13 -33 43 q 74 -16 31 -16 q 109 -7 93 -16 q 135 13 125 0 q 158 39 145 17 q 183 88 171 61 q 206 141 195 116 q 220 180 216 167 l 610 180 l 677 -24 l 889 32 m 546 370 l 281 370 l 414 776 l 546 370 "},"g":{"x_min":35,"x_max":751,"ha":814,"o":"m 751 76 l 751 649 q 725 728 751 697 q 650 759 700 759 q 586 729 605 759 q 564 659 568 700 q 481 732 531 708 q 373 757 430 757 q 230 722 293 757 q 124 633 168 688 q 58 506 81 577 q 35 359 35 434 q 58 216 35 284 q 124 95 81 147 q 230 12 168 43 q 369 -18 292 -18 q 464 1 420 -18 q 542 58 509 20 q 543 37 543 51 q 502 -95 543 -41 q 376 -150 460 -150 q 301 -142 338 -150 q 227 -124 263 -134 q 223 -158 227 -131 q 216 -215 220 -184 q 210 -272 213 -245 q 208 -305 208 -299 q 213 -309 210 -306 q 218 -313 216 -312 q 294 -330 255 -324 q 371 -336 333 -336 q 533 -304 462 -336 q 652 -218 604 -273 q 725 -88 700 -163 q 751 76 751 -12 m 552 365 q 542 297 552 332 q 514 235 532 262 q 468 191 496 208 q 402 174 440 174 q 331 191 361 174 q 282 237 301 208 q 254 301 263 265 q 246 375 246 337 q 255 445 246 411 q 284 507 265 480 q 334 551 304 534 q 403 568 364 568 q 470 551 439 568 q 511 516 494 537 q 536 471 527 495 q 548 420 545 447 q 552 365 552 393 "},"²":{"x_min":0,"x_max":0,"ha":391},"–":{"x_min":45,"x_max":716,"ha":791,"o":"m 716 569 l 119 569 q 66 542 87 569 q 45 484 45 516 q 65 425 45 452 q 119 398 85 398 l 681 398 l 716 398 l 716 569 "},"ë":{"x_min":13.109375,"x_max":732,"ha":770,"o":"m 607 910 q 577 984 607 954 q 505 1014 548 1014 q 434 983 463 1014 q 406 910 406 953 q 435 838 406 868 q 505 809 465 809 q 577 838 548 809 q 607 910 607 867 m 233 1014 q 162 984 193 1014 q 132 912 132 955 q 161 838 132 868 q 233 809 190 809 q 304 838 275 809 q 333 911 333 868 q 304 983 333 953 q 233 1014 275 1014 m 732 400 q 703 537 732 472 q 627 650 674 601 q 515 727 579 699 q 382 756 451 756 q 235 726 303 756 q 118 644 168 696 q 41 524 68 593 q 13 374 13 454 q 43 215 13 286 q 126 94 73 144 q 250 15 179 43 q 405 -12 322 -12 q 504 -2 457 -12 q 598 25 551 6 l 570 189 q 495 173 533 181 q 421 166 458 166 q 301 206 352 166 q 236 313 251 246 l 634 313 q 706 330 681 313 q 732 400 732 347 m 512 434 l 236 434 q 250 492 240 464 q 278 543 261 521 q 320 578 295 565 q 379 592 345 592 q 435 578 410 592 q 476 542 459 564 q 503 491 493 519 q 514 434 514 463 l 512 434 "},"ƒ":{"x_min":-24,"x_max":560,"ha":556,"o":"m 560 980 q 540 1036 560 1016 q 494 1064 521 1055 q 435 1074 467 1074 q 379 1074 403 1074 q 264 1032 308 1074 q 206 926 221 990 q 196 889 202 915 q 187 835 191 864 q 179 779 183 805 q 174 742 176 753 q 127 734 151 739 q 84 718 104 729 q 52 688 65 707 q 40 640 40 669 q 50 600 40 617 q 78 574 61 583 q 116 560 95 564 q 157 556 136 556 l 94 -69 q 76 -115 91 -97 q 26 -138 61 -134 q 0 -143 12 -143 q -24 -145 -11 -143 l -24 -305 q -5 -311 -17 -308 q 18 -318 5 -315 q 43 -322 31 -320 q 63 -325 55 -325 l 104 -325 q 182 -307 147 -325 q 241 -261 217 -290 q 280 -195 266 -233 q 298 -115 294 -156 l 367 555 q 415 560 388 555 q 463 579 441 566 q 501 613 486 592 q 516 661 516 633 q 505 699 516 683 q 477 724 494 715 q 440 737 460 733 q 401 742 420 742 q 393 742 398 743 q 384 742 387 742 q 392 798 387 771 q 405 850 397 825 q 408 857 408 853 q 410 864 408 861 q 451 889 426 883 q 500 903 476 896 q 542 927 524 911 q 560 980 560 942 "},"Î":{"x_min":-11,"x_max":501,"ha":506,"o":"m 501 1136 q 488 1179 501 1159 q 452 1209 475 1200 l 286 1276 q 266 1283 276 1279 q 245 1287 256 1287 q 224 1283 234 1287 q 204 1275 214 1279 l 35 1207 q 1 1178 13 1198 q -11 1134 -11 1158 q 10 1078 -11 1102 q 64 1055 32 1055 q 102 1064 77 1055 q 155 1084 128 1073 q 207 1107 182 1095 q 245 1125 231 1119 q 282 1108 258 1119 q 332 1085 306 1097 q 383 1065 359 1073 q 423 1057 408 1057 q 477 1080 454 1057 q 501 1136 501 1104 m 354 -1 l 354 900 q 322 977 354 944 q 246 1010 291 1010 q 170 978 203 1010 q 138 900 138 946 l 138 -1 l 354 -1 "},"e":{"x_min":23.109375,"x_max":742,"ha":792,"o":"m 742 400 q 713 537 742 472 q 637 650 684 601 q 525 727 589 699 q 392 756 461 756 q 245 726 313 756 q 128 644 178 696 q 51 524 78 593 q 23 374 23 454 q 53 215 23 286 q 136 94 83 144 q 260 15 189 43 q 415 -12 332 -12 q 513 -2 466 -12 q 608 25 560 6 l 579 189 q 505 173 543 181 q 431 166 468 166 q 311 206 362 166 q 246 313 261 246 l 643 313 q 716 330 691 313 q 742 400 742 347 m 522 434 l 246 434 q 260 492 250 464 q 287 543 270 521 q 330 578 304 565 q 389 592 355 592 q 445 578 420 592 q 486 542 469 564 q 513 491 503 519 q 524 434 524 463 l 522 434 "},"Ã":{"x_min":-33,"x_max":889.671875,"ha":887,"o":"m 889 32 l 576 883 q 515 975 555 941 q 412 1008 476 1008 q 313 973 352 1008 q 253 883 273 937 l -20 148 q -29 119 -26 134 q -33 89 -33 104 q -1 13 -33 43 q 74 -16 30 -16 q 109 -7 93 -16 q 135 13 124 0 q 158 39 145 17 q 183 88 170 61 q 205 141 195 116 q 220 180 216 167 l 610 180 l 677 -24 l 889 32 m 546 370 l 281 370 l 415 776 l 546 370 m 661 1307 l 648 1307 l 570 1307 q 567 1285 570 1297 q 559 1263 564 1273 q 546 1245 555 1252 q 527 1239 538 1239 q 478 1249 504 1239 q 425 1272 453 1259 q 369 1295 398 1285 q 312 1306 341 1306 q 251 1290 276 1306 q 210 1248 227 1274 q 186 1191 194 1222 q 179 1129 179 1160 l 179 1113 l 271 1113 q 273 1134 271 1122 q 280 1156 275 1146 q 293 1174 285 1167 q 313 1181 300 1181 q 359 1170 333 1181 q 413 1147 385 1160 q 470 1124 440 1134 q 527 1114 499 1114 q 589 1132 564 1114 q 630 1178 614 1150 q 653 1241 646 1207 q 661 1307 661 1275 "},"J":{"x_min":20.359375,"x_max":527,"ha":568,"o":"m 527 301 l 527 899 q 496 977 527 944 q 420 1011 465 1011 q 344 978 375 1011 q 313 901 313 945 l 313 294 q 308 250 313 272 q 295 211 304 228 q 268 183 285 194 q 225 172 251 172 q 190 178 210 172 q 147 193 170 184 q 104 211 125 202 q 68 224 82 220 l 20 48 q 128 6 72 26 q 242 -14 185 -14 q 364 10 311 -14 q 454 76 418 34 q 508 176 490 119 q 527 301 527 234 "},"»":{"x_min":15.828125,"x_max":626,"ha":664,"o":"m 626 359 q 613 402 626 374 q 580 463 600 430 q 536 531 560 495 q 488 597 511 566 q 446 652 465 628 q 417 685 426 676 l 300 581 q 330 537 310 569 q 375 469 351 505 q 421 402 399 434 q 454 359 443 370 l 335 201 q 317 170 324 186 q 310 134 310 154 q 333 74 310 99 q 391 50 356 50 q 435 63 414 50 q 470 95 456 76 l 601 292 q 618 324 611 308 q 626 359 626 340 m 341 358 q 328 402 341 374 q 295 463 315 430 q 251 531 275 495 q 205 597 228 566 q 162 652 181 628 q 132 685 142 676 l 15 581 q 46 537 25 569 q 91 469 67 505 q 136 402 115 434 q 168 359 157 370 l 51 201 q 32 170 40 186 q 24 134 24 154 q 47 74 24 99 q 105 50 71 50 q 150 63 130 50 q 184 95 171 76 l 315 292 q 332 324 324 308 q 341 358 341 340 "},"©":{"x_min":39,"x_max":1054,"ha":1132,"o":"m 1054 501 q 1013 702 1054 608 q 905 866 973 796 q 743 978 836 937 q 546 1019 651 1019 q 349 978 441 1019 q 187 866 256 937 q 79 701 119 795 q 39 499 39 606 q 79 298 39 392 q 187 134 119 204 q 349 22 256 63 q 546 -18 441 -18 q 743 22 651 -18 q 905 134 836 63 q 1013 299 973 205 q 1054 501 1054 394 m 546 945 q 714 909 636 945 q 850 813 792 874 q 941 672 908 753 q 975 501 975 591 q 941 329 975 409 q 850 187 908 248 q 714 91 792 126 q 546 56 636 56 q 378 91 456 56 q 242 187 300 126 q 151 329 184 248 q 118 501 118 409 q 151 672 118 591 q 242 813 184 753 q 378 909 300 874 q 546 945 456 945 m 755 277 q 742 311 755 296 q 711 326 730 326 q 685 319 699 326 q 653 304 670 312 q 616 289 636 296 q 571 283 595 283 q 495 301 527 283 q 440 348 462 319 q 407 415 418 377 q 397 494 397 453 q 406 572 397 533 q 436 644 416 612 q 488 695 456 676 q 565 715 520 715 q 628 702 602 715 q 677 679 654 690 q 679 678 679 679 q 680 678 679 678 q 703 672 693 672 q 733 686 722 672 q 745 719 745 701 q 725 765 745 747 q 677 794 705 783 q 619 809 649 805 q 570 814 589 814 q 450 788 502 814 q 362 720 398 763 q 307 618 326 676 q 288 494 288 561 q 307 374 288 430 q 362 275 326 317 q 450 208 398 233 q 568 183 503 183 q 619 187 587 183 q 681 202 651 191 q 733 231 711 213 q 755 277 755 249 "},"ò":{"x_min":-7,"x_max":717,"ha":736,"o":"m 540 881 q 527 925 540 904 q 492 953 515 945 q 459 973 489 959 q 391 1001 428 986 q 319 1027 353 1016 q 275 1042 285 1039 q 242 1048 260 1048 q 188 1025 210 1048 q 166 970 166 1003 q 179 926 166 946 q 216 896 193 906 q 251 877 220 891 q 319 850 281 864 q 389 823 356 835 q 434 810 423 811 q 465 805 448 805 q 518 827 496 805 q 540 881 540 849 m 717 373 q 689 521 717 451 q 614 644 662 591 q 499 727 565 696 q 355 758 433 758 q 210 726 276 758 q 95 642 144 695 q 20 520 47 590 q -7 370 -7 449 q 20 223 -7 293 q 95 100 47 152 q 210 16 144 47 q 356 -15 277 -15 q 501 16 435 -15 q 614 100 567 47 q 689 224 662 154 q 717 373 717 294 m 508 372 q 499 299 508 336 q 472 233 491 262 q 425 185 454 204 q 355 166 395 166 q 286 185 315 166 q 239 234 257 204 q 211 300 220 263 q 203 372 203 337 q 212 442 203 406 q 240 506 222 477 q 287 553 258 535 q 355 572 315 572 q 423 553 394 572 q 472 507 453 535 q 499 442 491 479 q 508 372 508 406 "},"^":{"x_min":24.5,"x_max":668.3125,"ha":717,"o":"m 668 224 l 345 809 l 24 224 l 186 224 l 345 536 l 507 224 l 668 224 "},"\f":{"x_min":7,"x_max":517,"ha":543,"o":"m 517 960 q 494 1016 517 993 q 440 1039 472 1039 q 402 1030 425 1039 q 351 1011 378 1022 q 300 988 325 1000 q 262 971 276 976 q 224 988 249 976 q 172 1011 200 1000 q 120 1031 145 1022 q 81 1041 95 1041 q 28 1017 50 1041 q 7 961 7 993 q 19 917 7 938 q 53 889 31 897 l 221 820 q 242 813 232 817 q 264 809 253 809 q 285 813 274 809 q 306 821 295 817 l 469 887 q 504 916 491 896 q 517 960 517 936 "},"«":{"x_min":23,"x_max":629.078125,"ha":677,"o":"m 543 694 q 498 680 518 694 q 464 648 477 667 l 332 449 q 314 419 322 435 q 307 385 307 403 q 319 342 307 369 q 351 282 331 315 q 394 215 371 249 q 440 149 417 180 q 481 96 462 119 q 510 63 501 73 l 629 166 q 599 210 619 178 q 555 276 578 241 q 511 342 532 310 q 479 384 490 373 l 597 542 q 616 573 608 557 q 625 609 625 589 q 601 669 625 644 q 543 694 577 694 m 257 694 q 212 680 233 694 q 177 648 191 667 l 47 449 q 30 419 37 435 q 23 384 23 402 q 35 342 23 369 q 67 282 47 315 q 110 215 86 249 q 156 149 134 180 q 198 96 179 119 q 226 63 217 73 l 343 166 q 314 210 334 178 q 270 276 293 241 q 226 342 247 310 q 194 384 205 373 l 312 542 q 331 573 323 557 q 339 609 339 589 q 315 668 339 642 q 257 694 291 694 "},"D":{"x_min":16,"x_max":850,"ha":899,"o":"m 850 505 q 850 560 850 533 q 843 615 850 587 q 781 778 824 707 q 675 899 738 850 q 532 974 611 948 q 360 1000 452 1000 q 286 1000 334 1000 q 187 1000 238 1000 q 88 1000 135 1000 q 16 1000 40 1000 l 16 109 q 48 31 16 62 q 127 0 81 0 l 380 0 q 574 38 487 0 q 722 145 661 77 q 816 306 783 213 q 850 505 850 398 m 357 807 q 472 783 421 807 q 559 718 523 759 q 614 620 595 676 q 634 502 634 565 q 616 382 634 439 q 563 284 598 326 q 478 216 529 241 q 361 192 428 192 l 232 192 l 232 807 l 357 807 "},"∙":{"x_min":39,"x_max":279,"ha":331,"o":"m 279 371 q 243 458 279 423 q 159 494 208 494 q 74 458 109 494 q 39 371 39 423 q 48 324 39 346 q 75 286 58 302 q 114 260 92 270 q 160 251 135 251 q 206 260 184 251 q 243 287 227 270 q 269 325 259 303 q 279 371 279 346 "},"ÿ":{"x_min":-8.453125,"x_max":656,"ha":671,"o":"m 570 909 q 540 983 570 953 q 468 1013 510 1013 q 397 982 426 1013 q 369 909 369 952 q 398 837 369 867 q 468 808 427 808 q 540 837 510 808 q 570 909 570 866 m 196 1013 q 124 983 154 1013 q 95 911 95 954 q 123 837 95 867 q 195 808 152 808 q 266 837 237 808 q 296 910 296 867 q 266 982 296 952 q 196 1013 237 1013 m 656 654 q 624 727 656 698 q 551 757 593 757 q 486 731 510 757 q 451 669 462 705 l 333 304 l 180 744 l -8 665 l 226 48 q 210 12 223 43 q 180 -54 196 -17 q 149 -126 164 -91 q 132 -174 135 -160 q 118 -237 118 -212 q 149 -306 118 -279 q 221 -333 181 -333 q 283 -310 259 -333 q 320 -252 307 -287 q 341 -214 326 -248 q 379 -126 357 -180 q 427 -6 401 -73 q 481 132 454 61 q 534 275 508 204 q 581 408 560 347 q 617 514 602 469 q 638 580 632 559 q 651 623 647 604 q 656 654 656 643 "},"í":{"x_min":-26,"x_max":350,"ha":335,"o":"m 350 970 q 327 1024 350 1002 q 273 1047 305 1047 q 242 1041 257 1047 q 217 1034 235 1040 q 175 1019 198 1029 q 126 1001 152 1010 q 78 981 100 991 q 42 964 57 971 q 24 953 27 958 q -12 923 1 944 q -26 879 -26 903 q -2 824 -26 846 q 53 802 21 802 q 84 808 66 802 q 108 816 91 810 q 150 831 126 822 q 199 850 174 839 q 246 870 224 860 q 283 886 268 879 q 301 898 298 893 q 336 926 322 906 q 350 970 350 946 m 278 0 l 278 650 q 269 690 278 670 q 247 724 261 709 q 214 747 233 738 q 174 757 196 757 q 99 726 130 757 q 68 650 68 695 l 68 0 l 278 0 "},"w":{"x_min":-39.140625,"x_max":1062,"ha":1058,"o":"m 1062 651 q 1030 726 1062 695 q 955 758 999 758 q 895 738 923 758 q 856 687 867 719 l 733 306 l 608 694 l 416 694 l 290 306 l 141 762 l -39 675 l 182 75 q 221 15 196 39 q 288 -8 246 -8 q 354 14 328 -8 q 393 73 381 37 l 513 427 l 631 72 q 670 14 642 36 q 736 -8 697 -8 q 803 16 778 -8 q 842 76 827 40 l 1051 601 q 1058 624 1055 612 q 1062 651 1062 637 "},"$":{"x_min":-10.8125,"x_max":697,"ha":712,"o":"m 697 324 q 669 441 697 392 q 596 523 641 490 q 498 579 552 556 q 389 618 443 601 q 375 622 382 620 q 362 626 368 623 l 362 816 q 408 803 385 812 q 455 785 432 794 q 500 768 479 776 q 538 761 522 761 q 604 788 578 761 q 630 856 630 816 q 602 911 630 886 q 538 954 575 936 q 461 983 500 971 q 397 1000 421 994 q 370 1006 372 1006 q 368 1022 370 1008 q 365 1052 367 1035 q 362 1072 363 1070 q 362 1091 362 1081 q 359 1112 362 1102 q 352 1130 357 1123 q 336 1137 347 1137 q 314 1114 317 1137 q 312 1094 312 1110 q 312 1060 312 1078 q 312 1026 312 1042 q 312 1006 312 1010 q 198 982 254 1006 q 96 919 141 958 q 23 825 51 879 q -4 708 -4 771 q 13 617 -4 657 q 58 547 30 578 q 125 495 87 516 q 207 458 163 473 q 260 441 234 448 q 312 426 286 433 l 312 189 l 303 188 q 241 195 272 188 q 178 215 209 203 q 117 243 147 228 q 62 272 88 258 l -10 92 q 58 48 19 67 q 141 16 98 29 q 228 -4 183 2 q 312 -11 272 -11 l 312 -118 l 362 -118 l 362 -8 q 486 19 425 -8 q 594 91 547 46 q 669 196 641 136 q 697 324 697 256 m 316 826 q 314 815 316 824 q 312 795 312 806 q 313 785 312 785 l 313 640 q 280 654 298 645 q 247 674 262 663 q 223 701 232 686 q 214 737 214 716 q 225 778 214 755 q 253 812 237 801 q 295 826 275 826 q 316 826 316 826 m 471 311 q 437 231 471 265 q 362 189 404 197 l 362 412 q 399 398 379 405 q 434 378 419 390 q 460 350 450 366 q 471 311 471 333 "},"\\":{"x_min":46.28125,"x_max":359.328125,"ha":419,"o":"m 359 0 l 187 1000 l 46 1000 l 219 0 l 359 0 "},"Ì":{"x_min":-22,"x_max":353,"ha":344,"o":"m 353 1134 q 339 1178 353 1158 q 304 1206 326 1198 q 270 1226 300 1212 q 203 1254 240 1240 q 132 1281 166 1269 q 87 1296 98 1293 q 54 1303 69 1303 q 0 1280 23 1303 q -22 1225 -22 1257 q -8 1181 -22 1201 q 28 1151 5 1161 q 63 1132 32 1145 q 131 1104 93 1119 q 201 1078 168 1090 q 246 1064 235 1066 q 277 1058 259 1058 q 331 1080 309 1058 q 353 1134 353 1102 m 276 -1 l 276 900 q 244 977 276 944 q 168 1010 213 1010 q 92 978 125 1010 q 60 900 60 946 l 60 -1 l 276 -1 "},"µ":{"x_min":0,"x_max":0,"ha":391},"Ç":{"x_min":19,"x_max":821,"ha":870,"o":"m 821 161 q 793 229 821 202 q 727 257 766 257 q 682 246 706 257 q 630 223 659 236 q 567 200 601 210 q 491 190 533 190 q 378 216 427 190 q 298 285 330 242 q 250 385 266 328 q 235 502 235 441 q 250 611 235 559 q 296 704 266 663 q 369 772 326 745 q 468 811 412 800 q 511 816 488 816 q 627 792 574 816 q 728 730 680 768 l 804 886 q 736 934 776 911 q 652 972 697 956 q 561 999 607 989 q 476 1009 516 1009 q 461 1009 469 1009 q 446 1007 453 1009 q 271 953 350 997 q 136 840 193 909 q 49 682 80 771 q 19 496 19 593 q 47 320 19 405 q 128 168 76 235 q 255 55 181 101 q 420 -4 329 9 q 396 -30 411 -15 q 367 -61 381 -44 q 341 -96 352 -79 q 331 -127 331 -113 q 349 -168 331 -151 q 390 -186 367 -186 q 441 -162 422 -186 l 551 -25 l 544 -10 q 625 1 577 -10 q 716 33 672 12 q 790 86 759 54 q 821 161 821 118 "},"’":{"x_min":-3,"x_max":318.21875,"ha":327,"o":"m 318 960 l 131 1049 l 5 757 q -1 735 0 746 q -3 713 -3 724 q 24 642 -3 673 q 93 612 52 612 q 148 628 122 612 q 186 671 173 645 l 318 960 "},"-":{"x_min":13.671875,"x_max":472,"ha":551,"o":"m 472 512 l 124 512 q 94 507 112 512 q 59 493 75 502 q 30 469 43 484 q 14 435 17 455 q 16 399 11 417 q 30 366 21 381 q 52 342 39 352 q 77 333 65 333 l 472 333 l 472 512 "},"Q":{"x_min":37,"x_max":1060.234375,"ha":1135,"o":"m 1060 41 l 898 203 q 963 344 943 270 q 984 498 984 417 q 949 694 984 601 q 852 857 914 787 q 702 970 789 928 q 510 1012 615 1012 q 319 971 405 1012 q 169 859 232 930 q 71 696 106 789 q 37 501 37 603 q 71 305 37 398 q 169 141 106 212 q 319 28 232 70 q 510 -14 405 -14 q 643 7 579 -14 q 763 69 706 29 l 926 -98 l 1060 41 m 765 503 q 758 420 765 460 q 735 340 751 380 q 719 344 728 340 q 699 355 710 349 q 677 363 688 360 q 657 363 667 366 q 633 349 643 360 q 620 324 623 338 q 621 300 618 313 q 630 274 624 287 q 641 251 635 262 q 647 233 646 241 q 511 179 592 179 q 396 207 445 179 q 317 282 348 235 q 270 387 285 328 q 256 505 256 445 q 271 619 256 563 q 319 720 287 675 q 398 792 351 764 q 509 820 445 820 q 621 792 573 820 q 701 721 669 765 q 749 620 733 677 q 765 503 765 563 "},"M":{"x_min":16,"x_max":1177.03125,"ha":1236,"o":"m 1177 25 l 1038 885 q 987 978 1028 944 q 888 1012 945 1012 q 799 981 836 1012 q 746 901 761 950 l 590 355 l 435 901 q 382 981 420 950 q 293 1012 345 1012 q 194 978 236 1012 q 143 885 153 944 l 17 121 q 16 107 16 114 q 16 94 16 101 q 46 18 16 48 q 120 -11 77 -11 q 192 16 163 -11 q 229 85 222 43 l 312 691 l 495 70 l 688 70 l 870 691 l 966 -11 l 1177 25 "},"C":{"x_min":4,"x_max":806,"ha":839,"o":"m 806 162 q 778 229 806 202 q 711 257 751 257 q 666 246 690 257 q 615 223 643 236 q 552 200 586 210 q 476 190 518 190 q 363 216 412 190 q 283 285 315 242 q 235 385 251 328 q 220 502 220 441 q 235 611 220 559 q 281 704 251 663 q 354 772 311 745 q 453 811 397 800 q 496 816 473 816 q 613 792 560 816 q 713 730 665 768 l 789 886 q 721 934 761 911 q 637 972 681 956 q 546 999 592 989 q 461 1009 500 1009 q 446 1009 454 1009 q 431 1007 438 1009 q 256 953 334 997 q 121 840 178 909 q 34 682 65 771 q 4 496 4 594 q 29 335 4 413 q 97 193 54 258 q 264 41 163 94 q 491 -11 366 -11 q 558 -6 522 -11 q 628 7 593 -2 q 697 32 664 16 q 755 69 729 47 q 790 109 774 86 q 806 162 806 132 "},"!":{"x_min":41,"x_max":279,"ha":331,"o":"m 264 348 l 264 995 l 56 995 l 56 954 l 56 349 q 66 319 56 333 q 92 294 76 305 q 126 278 107 284 q 160 272 144 272 q 194 278 175 272 q 228 294 212 284 q 254 319 243 305 q 264 348 264 333 m 279 99 q 243 185 279 150 q 157 220 208 220 q 75 183 109 220 q 41 97 41 147 q 76 12 41 47 q 160 -22 111 -22 q 244 13 209 -22 q 279 99 279 48 "},"ç":{"x_min":16,"x_max":630,"ha":671,"o":"m 387 753 q 239 723 307 753 q 121 642 171 694 q 43 520 71 590 q 16 368 16 450 q 35 242 16 303 q 92 132 55 182 q 181 47 128 82 q 297 0 233 13 q 276 -25 289 -10 q 251 -58 263 -41 q 230 -92 239 -75 q 222 -121 222 -109 q 240 -162 222 -145 q 281 -180 258 -180 q 308 -173 295 -180 q 331 -155 322 -167 l 437 -9 q 499 0 466 -6 q 561 22 533 7 q 610 62 590 37 q 630 122 630 86 q 602 186 630 158 q 538 214 575 214 q 507 208 525 214 q 469 196 489 203 q 427 185 448 190 q 386 181 406 181 q 318 198 347 181 q 268 242 289 215 q 238 304 248 269 q 228 373 228 339 q 238 445 228 411 q 270 504 249 479 q 321 545 290 530 q 391 561 352 561 q 433 556 410 561 q 481 544 456 551 q 529 529 505 537 q 572 513 553 520 l 628 694 q 510 735 567 718 q 387 753 454 753 "},"È":{"x_min":11,"x_max":589.046875,"ha":620,"o":"m 464 1134 q 450 1177 464 1157 q 414 1206 436 1196 q 380 1225 410 1211 q 313 1254 350 1239 q 242 1280 276 1268 q 198 1294 208 1292 q 165 1301 183 1301 q 112 1279 134 1301 q 90 1224 90 1256 q 103 1180 90 1200 q 140 1150 117 1160 q 173 1132 142 1145 q 241 1104 204 1118 q 312 1078 278 1089 q 356 1064 345 1066 q 373 1059 365 1060 q 387 1058 380 1058 q 441 1080 419 1058 q 464 1134 464 1102 m 118 0 l 589 0 l 589 194 l 227 194 l 227 404 l 451 404 q 520 431 491 404 q 549 499 549 458 q 522 565 549 540 q 489 587 507 579 q 449 596 470 596 l 227 596 l 227 805 l 476 805 q 543 833 515 805 q 571 902 571 861 q 544 970 571 942 q 477 999 516 999 l 268 999 q 224 999 263 999 q 138 999 186 999 q 53 999 92 999 q 11 999 15 999 l 11 113 q 19 70 11 91 q 41 34 27 49 q 75 9 55 19 q 118 0 95 0 "},"{":{"x_min":12,"x_max":402,"ha":428,"o":"m 402 1117 q 391 1148 402 1135 q 361 1162 380 1162 l 219 1162 q 133 1133 166 1162 q 100 1046 100 1105 l 100 598 q 86 568 100 579 q 56 549 72 558 q 25 530 39 540 q 12 500 12 519 q 25 470 12 480 q 56 450 39 459 q 86 431 72 441 q 100 400 100 421 l 100 -46 q 133 -133 100 -104 q 221 -162 166 -162 l 385 -162 l 385 -77 q 351 -77 372 -77 q 312 -69 331 -77 q 279 -43 293 -61 q 266 13 266 -24 l 266 380 q 236 461 266 428 q 159 500 206 494 q 236 539 206 505 q 267 619 267 572 l 267 1001 q 277 1048 267 1032 q 302 1070 287 1064 q 333 1076 317 1076 q 366 1078 351 1076 q 391 1089 381 1081 q 402 1117 402 1096 "},"X":{"x_min":23,"x_max":855,"ha":911,"o":"m 855 96 q 831 165 855 133 l 563 537 l 786 831 q 812 902 812 865 q 780 978 812 945 q 705 1011 748 1011 q 650 992 674 1011 q 607 949 625 974 l 437 705 l 218 1017 l 54 881 l 312 536 l 44 164 q 23 97 23 133 q 54 20 23 53 q 130 -12 86 -12 q 184 5 160 -12 q 225 47 209 22 l 439 365 l 652 47 q 693 5 670 22 q 748 -12 717 -12 q 823 19 792 -12 q 855 96 855 51 "},"ô":{"x_min":20,"x_max":744,"ha":790,"o":"m 638 881 q 624 926 638 906 q 588 955 610 945 l 422 1021 q 402 1029 412 1025 q 382 1032 393 1032 q 361 1029 371 1032 q 341 1021 350 1025 l 172 952 q 138 924 150 944 q 126 881 126 905 q 147 825 126 849 q 201 802 169 802 q 239 811 214 802 q 292 831 265 820 q 344 854 319 842 q 382 871 368 866 q 419 853 395 865 q 469 831 443 842 q 520 812 496 820 q 560 804 545 804 q 614 826 591 804 q 638 881 638 849 m 744 373 q 716 521 744 451 q 641 644 689 591 q 526 727 592 696 q 382 758 460 758 q 237 726 303 758 q 122 642 171 695 q 47 520 74 590 q 20 370 20 449 q 47 223 20 293 q 122 100 74 152 q 237 16 171 47 q 383 -15 304 -15 q 528 16 462 -15 q 641 100 594 47 q 716 224 689 154 q 744 373 744 294 m 535 372 q 526 299 535 336 q 499 233 518 262 q 452 185 481 204 q 382 166 422 166 q 313 185 342 166 q 266 234 284 204 q 238 300 247 263 q 230 372 230 337 q 239 442 230 406 q 267 506 249 477 q 314 553 285 535 q 382 572 342 572 q 450 553 421 572 q 499 507 480 535 q 526 442 518 479 q 535 372 535 406 "},"¼":{"x_min":0,"x_max":0,"ha":391},"#":{"x_min":22,"x_max":746,"ha":795,"o":"m 746 670 q 735 696 746 685 q 710 707 725 707 l 574 707 l 635 987 l 552 987 l 494 705 l 357 705 l 417 987 l 334 987 l 276 707 l 144 707 q 109 694 125 707 q 93 660 93 681 q 103 634 93 645 q 128 624 113 624 l 258 624 l 208 376 l 72 376 q 37 362 53 376 q 22 328 22 349 q 31 303 22 313 q 56 293 41 293 l 190 293 q 179 237 188 279 q 161 150 170 195 q 145 64 152 104 q 138 16 138 25 q 147 -7 138 1 q 171 -16 157 -16 q 200 -4 188 -16 q 215 23 212 8 l 272 294 l 409 294 q 397 238 406 281 q 377 148 387 195 q 359 61 367 101 q 351 15 351 22 q 360 -7 351 1 q 382 -16 370 -16 q 415 -6 401 -16 q 432 22 428 4 l 489 293 l 627 293 q 663 307 648 293 q 678 343 678 322 q 667 367 678 357 q 642 378 657 378 l 506 378 l 558 624 l 692 624 q 729 636 712 624 q 746 670 746 649 m 476 624 l 425 376 l 288 376 l 340 624 l 476 624 "},"Ê":{"x_min":11,"x_max":589.046875,"ha":620,"o":"m 535 1135 q 522 1178 535 1158 q 485 1208 509 1198 l 318 1275 q 299 1282 310 1278 q 277 1286 288 1286 q 257 1282 267 1286 q 236 1273 247 1278 l 69 1205 q 34 1177 47 1197 q 22 1133 22 1157 q 44 1078 22 1102 q 98 1055 66 1055 q 136 1063 111 1055 q 188 1083 161 1072 q 239 1106 214 1094 q 278 1124 265 1118 q 316 1107 292 1118 q 366 1084 340 1096 q 417 1064 393 1072 q 455 1056 440 1056 q 511 1079 487 1056 q 535 1135 535 1103 m 118 0 l 589 0 l 589 194 l 227 194 l 227 404 l 451 404 q 520 431 491 404 q 549 499 549 458 q 522 565 549 540 q 489 587 507 579 q 449 596 470 596 l 227 596 l 227 805 l 476 805 q 543 833 515 805 q 571 902 571 861 q 544 970 571 942 q 477 999 516 999 l 268 999 q 224 999 263 999 q 138 999 186 999 q 53 999 92 999 q 11 999 15 999 l 11 113 q 19 70 11 91 q 41 34 27 49 q 75 9 55 19 q 118 0 95 0 "},")":{"x_min":4.8125,"x_max":282,"ha":298,"o":"m 61 1086 q 18 1058 35 1079 q 5 1013 2 1038 q 11 984 6 999 q 21 954 16 970 q 52 838 37 900 q 78 711 67 775 q 95 587 89 647 q 102 477 102 527 q 91 308 102 396 q 59 142 81 220 q 48 98 54 123 q 35 46 42 73 q 23 -5 29 20 q 12 -49 17 -30 q 32 -63 12 -54 q 77 -81 52 -72 q 123 -96 102 -90 q 144 -103 144 -103 q 159 -69 144 -103 q 194 14 174 -35 q 232 123 213 64 q 258 232 250 182 q 275 374 269 307 q 282 485 282 441 q 276 597 282 542 q 260 709 271 653 q 241 802 252 750 q 215 906 231 854 q 176 1004 198 958 q 123 1075 153 1049 q 115 1079 122 1076 q 99 1085 108 1082 q 80 1088 91 1088 q 61 1086 70 1088 "},"\u001c":{"x_min":0,"x_max":0,"ha":391},"Å":{"x_min":-33,"x_max":889.59375,"ha":887,"o":"m 889 59 l 576 883 q 537 951 561 921 q 475 997 513 982 q 541 1043 515 1011 q 567 1118 567 1075 q 554 1173 567 1148 q 519 1215 541 1197 q 470 1243 497 1233 q 415 1253 444 1253 q 360 1243 387 1253 q 312 1215 334 1233 q 278 1172 291 1197 q 266 1116 266 1147 q 289 1042 266 1075 q 352 996 313 1010 q 291 951 314 980 q 252 883 267 921 l -20 148 q -29 119 -26 134 q -33 89 -33 104 q -1 13 -33 43 q 74 -16 30 -16 q 109 -7 93 -16 q 135 13 124 0 q 157 39 145 17 q 183 88 170 61 q 205 141 195 116 q 219 180 215 167 l 610 180 l 685 -20 l 889 59 m 372 1121 q 384 1151 372 1139 q 415 1164 397 1164 q 446 1151 434 1164 q 459 1119 459 1139 q 446 1088 459 1100 q 415 1076 434 1076 q 384 1089 396 1076 q 372 1121 372 1102 m 547 370 l 280 370 l 414 776 l 547 370 "},"ø":{"x_min":22.109375,"x_max":767,"ha":817,"o":"m 767 743 q 758 768 767 757 q 734 780 749 780 q 706 767 721 780 q 674 737 690 754 q 644 702 658 720 q 622 675 630 685 q 397 759 525 759 q 252 728 318 759 q 136 645 185 697 q 60 523 87 593 q 33 374 33 453 q 54 239 33 305 q 117 118 76 173 l 22 3 l 71 -38 l 166 69 q 270 6 212 27 q 389 -15 328 -15 q 535 15 468 -15 q 650 98 601 46 q 727 220 699 150 q 754 369 754 290 q 733 504 754 440 q 669 624 712 569 q 692 648 676 631 q 724 682 708 664 q 754 718 741 700 q 767 743 767 735 m 487 533 l 260 270 q 246 320 252 294 q 241 372 241 345 q 250 442 241 406 q 278 506 260 477 q 325 553 297 535 q 393 572 354 572 q 487 533 449 572 m 546 366 q 537 295 546 330 q 509 231 528 259 q 460 185 490 202 q 392 168 431 168 q 341 177 366 168 q 297 206 316 187 l 526 472 q 541 420 537 447 q 546 366 546 394 "},"â":{"x_min":44,"x_max":762,"ha":834,"o":"m 670 881 q 657 926 670 906 q 621 955 644 945 l 455 1021 q 435 1029 445 1026 q 414 1033 425 1033 q 393 1029 403 1033 q 373 1021 383 1026 l 204 952 q 170 924 182 944 q 158 881 158 905 q 179 826 158 850 q 233 803 201 803 q 271 811 246 803 q 324 831 297 820 q 376 854 351 842 q 414 872 400 866 q 451 853 427 865 q 502 831 475 842 q 553 812 528 820 q 592 804 577 804 q 646 826 623 804 q 670 881 670 849 m 762 -3 l 762 653 q 743 716 762 690 q 687 743 724 743 q 641 743 665 747 q 589 722 617 740 q 555 686 562 705 q 547 666 547 666 q 523 679 547 666 q 460 705 498 692 q 371 724 421 717 q 272 717 321 730 q 176 668 218 702 q 104 588 133 634 q 59 484 75 541 q 44 369 44 427 q 67 224 44 293 q 135 103 91 155 q 243 19 180 50 q 384 -12 306 -12 q 492 12 443 -12 q 572 90 541 37 q 571 78 571 90 q 571 51 571 66 q 571 20 571 35 q 571 -3 571 5 l 762 -3 m 560 376 q 552 301 560 338 q 526 235 545 265 q 479 186 508 205 q 407 168 449 168 q 338 186 366 168 q 291 233 309 204 q 263 298 272 262 q 255 370 255 334 q 263 441 255 405 q 291 506 272 477 q 340 553 310 535 q 410 572 369 572 q 479 554 451 572 q 526 509 508 537 q 551 447 543 481 q 560 376 560 412 "},"}":{"x_min":12,"x_max":403,"ha":429,"o":"m 13 -118 q 23 -148 13 -135 q 53 -162 34 -162 l 193 -162 q 281 -133 248 -162 q 315 -46 315 -105 l 315 401 q 328 431 315 421 q 359 451 342 441 q 389 470 375 460 q 403 500 403 480 q 389 530 403 519 q 358 549 375 540 q 327 569 341 558 q 314 600 314 579 l 314 1047 q 281 1134 314 1105 q 194 1163 248 1163 l 29 1163 l 29 1078 q 62 1078 43 1078 q 101 1070 82 1078 q 134 1043 120 1062 q 148 987 148 1025 l 148 619 q 177 539 148 572 q 254 500 207 505 q 177 461 207 494 q 148 380 148 428 l 148 -1 q 137 -49 148 -34 q 112 -70 127 -64 q 79 -76 97 -76 q 47 -78 62 -76 q 22 -89 32 -81 q 12 -118 12 -97 l 13 -118 "},"‰":{"x_min":-18,"x_max":1263,"ha":1290,"o":"m 1263 224 q 1250 311 1263 268 q 1212 388 1237 354 q 1151 442 1188 421 q 1066 463 1114 463 q 981 441 1019 463 q 917 386 942 420 q 877 308 891 352 q 864 220 864 264 q 876 132 864 175 q 915 53 889 88 q 979 -2 941 19 q 1064 -24 1016 -24 q 1150 -1 1113 -24 q 1213 55 1188 20 q 1250 135 1238 91 q 1263 224 1263 179 m 384 779 q 371 868 384 824 q 332 945 358 911 q 269 1001 306 979 q 185 1023 232 1023 q 98 1000 135 1023 q 35 943 61 978 q -4 863 9 907 q -18 774 -18 818 q -4 686 -18 729 q 34 608 9 643 q 97 551 59 573 q 182 530 134 530 q 268 552 231 530 q 331 610 306 574 q 370 691 356 646 q 384 779 384 735 m 679 940 q 658 994 679 972 q 606 1016 637 1016 q 568 1006 585 1016 q 542 976 550 996 l 138 73 q 133 62 136 70 q 130 52 130 55 q 145 35 130 48 q 179 9 160 23 q 217 -13 199 -3 q 239 -24 235 -24 q 248 -19 243 -24 q 258 -7 252 -14 q 267 4 263 -1 q 272 13 270 10 l 670 906 q 679 940 679 922 m 836 224 q 823 311 836 268 q 784 388 810 354 q 722 442 759 421 q 638 463 685 463 q 552 441 590 463 q 488 386 514 420 q 448 308 462 352 q 435 220 435 264 q 447 132 435 176 q 486 54 460 88 q 550 -2 512 19 q 635 -23 587 -23 q 722 -1 684 -23 q 784 56 759 20 q 823 135 810 91 q 836 224 836 180 m 1063 120 q 1031 129 1044 120 q 1009 152 1017 138 q 997 185 1001 167 q 993 220 993 203 q 997 254 993 236 q 1009 285 1001 271 q 1031 310 1017 300 q 1065 320 1044 320 q 1119 289 1103 320 q 1136 225 1136 258 q 1132 188 1136 207 q 1120 154 1129 170 q 1097 129 1111 139 q 1063 120 1084 120 m 183 876 q 215 866 202 876 q 236 843 228 857 q 248 811 244 828 q 253 778 253 795 q 248 743 253 761 q 236 710 244 725 q 214 684 228 694 q 182 674 201 674 q 149 683 162 674 q 128 708 136 693 q 115 742 119 724 q 111 775 111 760 q 115 809 111 792 q 128 841 119 827 q 150 866 136 856 q 183 876 164 876 m 636 320 q 691 289 674 320 q 709 225 709 258 q 705 188 709 207 q 693 154 702 170 q 670 129 684 139 q 635 120 655 120 q 602 129 615 120 q 580 152 588 138 q 568 185 572 167 q 564 220 564 203 q 568 254 564 236 q 580 285 572 271 q 602 310 588 300 q 636 320 615 320 "},"Ä":{"x_min":-33,"x_max":889.46875,"ha":887,"o":"m 703 1023 q 679 1084 703 1059 q 620 1109 655 1109 q 560 1083 584 1109 q 537 1021 537 1057 q 562 964 537 988 q 620 940 587 940 q 679 963 655 940 q 703 1023 703 987 m 291 1024 q 267 1083 291 1058 q 209 1109 243 1109 q 149 1083 173 1109 q 125 1021 125 1057 q 149 962 125 986 q 209 938 173 938 q 267 963 243 938 q 291 1024 291 989 m 889 32 l 576 883 q 515 975 554 941 q 412 1008 475 1008 q 312 973 352 1008 q 252 883 273 938 l -20 148 q -29 119 -26 134 q -33 89 -33 104 q 0 13 -33 43 q 74 -16 31 -16 q 109 -7 93 -16 q 135 13 125 0 q 158 39 145 17 q 183 88 171 61 q 205 141 195 116 q 220 180 216 167 l 610 180 l 677 -24 l 889 32 m 546 370 l 281 370 l 414 776 l 546 370 "},"¸":{"x_min":22,"x_max":254.75,"ha":286,"o":"m 254 43 l 107 43 q 93 17 103 36 q 71 -20 83 0 q 49 -59 60 -40 q 35 -86 39 -77 q 22 -147 22 -114 q 39 -199 22 -175 q 84 -224 56 -224 q 113 -216 99 -224 q 134 -193 128 -208 l 254 43 "},"a":{"x_min":37,"x_max":755,"ha":820,"o":"m 755 -3 l 755 653 q 736 716 755 690 q 681 743 718 743 q 634 743 659 747 q 583 722 610 740 q 548 686 555 705 q 540 666 540 666 q 516 679 540 666 q 453 705 491 692 q 364 724 414 717 q 265 717 314 730 q 169 668 211 702 q 97 588 126 634 q 52 484 68 541 q 37 369 37 427 q 60 224 37 293 q 128 103 84 155 q 236 19 173 50 q 377 -12 299 -12 q 485 12 436 -12 q 565 90 534 37 q 564 78 564 90 q 564 51 564 66 q 564 20 564 35 q 564 -3 564 5 l 755 -3 m 553 376 q 545 301 553 338 q 519 235 538 265 q 472 186 501 205 q 400 168 442 168 q 331 186 359 168 q 284 233 302 204 q 256 298 265 262 q 248 370 248 334 q 256 441 248 405 q 284 506 265 477 q 333 553 303 535 q 403 572 362 572 q 472 554 444 572 q 519 509 501 537 q 544 447 536 481 q 553 376 553 412 "},"—":{"x_min":39,"x_max":696,"ha":764,"o":"m 696 310 l 696 511 l 39 511 l 39 310 l 696 310 "},"=":{"x_min":42,"x_max":732,"ha":803,"o":"m 732 358 q 707 419 732 394 q 647 444 683 444 l 42 444 l 42 275 l 647 275 q 706 298 681 275 q 732 358 732 322 m 732 594 q 707 655 732 630 q 647 680 683 680 l 42 680 l 42 511 l 647 511 q 706 534 681 511 q 732 594 732 558 "},"N":{"x_min":48,"x_max":900,"ha":980,"o":"m 900 97 l 900 899 q 891 942 900 922 q 868 977 882 962 q 833 1001 853 992 q 791 1011 813 1011 q 749 1001 769 1011 q 715 977 730 992 q 692 941 701 962 q 684 898 684 920 l 684 364 l 247 961 q 207 998 231 983 q 156 1013 183 1013 q 79 979 110 1013 q 48 900 48 946 l 48 1 l 264 1 l 264 641 l 707 30 q 744 0 722 10 q 791 -12 766 -12 q 868 19 837 -12 q 900 97 900 51 "},"ú":{"x_min":22,"x_max":688,"ha":734,"o":"m 543 969 q 520 1024 543 1001 q 467 1046 498 1046 q 435 1040 452 1046 q 410 1033 429 1039 q 369 1019 392 1028 q 320 1000 346 1010 q 272 981 294 990 q 236 964 250 971 q 218 953 221 957 q 182 924 196 944 q 169 879 169 903 q 192 824 169 846 q 246 802 215 802 q 279 808 264 802 q 304 816 286 810 q 345 831 321 822 q 394 849 369 839 q 441 869 419 860 q 477 886 463 879 q 495 897 492 893 q 530 926 517 906 q 543 969 543 946 m 688 305 l 688 648 q 657 723 688 692 q 583 755 626 755 q 542 746 561 755 q 508 723 523 738 q 486 688 494 709 q 478 646 478 668 l 478 307 q 448 209 478 245 q 355 173 418 173 q 261 209 291 173 q 232 307 232 246 l 232 735 l 80 735 l 22 735 l 22 305 q 110 63 22 141 q 355 -14 199 -14 q 600 63 512 -14 q 688 306 688 141 l 688 305 "},"2":{"x_min":39.90625,"x_max":722,"ha":790,"o":"m 722 0 l 722 194 l 376 194 q 455 287 415 238 q 535 388 495 335 q 592 466 562 424 q 646 551 622 507 q 687 640 671 595 q 704 731 704 685 q 676 850 704 798 q 604 939 649 903 q 502 993 559 974 q 384 1012 444 1012 q 136 916 240 1012 q 68 826 97 878 q 39 712 39 774 q 65 634 39 666 q 139 603 91 603 q 185 620 165 603 q 196 634 192 626 q 206 648 200 641 q 237 708 222 677 q 272 763 252 738 q 318 804 291 788 q 384 820 344 820 q 454 794 423 820 q 485 727 485 768 q 467 666 485 702 q 425 593 450 631 q 372 519 400 555 q 320 455 343 483 q 300 430 313 447 q 270 391 287 413 q 235 346 253 369 q 202 303 217 323 q 176 271 187 284 q 165 256 166 258 q 119 207 142 232 q 72 156 95 181 q 54 126 61 142 q 47 91 47 110 q 81 22 47 44 q 157 0 116 0 l 722 0 "},"ü":{"x_min":41,"x_max":707,"ha":774,"o":"m 611 916 q 581 989 611 959 q 510 1019 552 1019 q 438 988 467 1019 q 410 913 410 958 q 439 842 410 870 q 511 814 469 814 q 581 843 552 814 q 611 916 611 873 m 138 913 q 167 843 138 872 q 238 814 197 814 q 309 843 279 814 q 339 916 339 873 q 309 988 339 958 q 238 1019 279 1019 q 166 988 195 1019 q 138 913 138 958 m 707 305 l 707 648 q 676 723 707 692 q 601 755 645 755 q 561 746 580 755 q 527 723 541 738 q 505 688 513 709 q 497 646 497 668 l 497 307 q 467 209 497 245 q 374 173 437 173 q 280 209 310 173 q 251 307 251 246 l 251 735 l 99 735 l 41 735 l 41 305 q 129 63 41 141 q 374 -14 218 -14 q 619 63 531 -14 q 707 306 707 141 l 707 305 "},"¯":{"x_min":11,"x_max":485,"ha":515,"o":"m 485 898 q 463 951 485 929 q 410 973 441 973 l 81 973 q 31 950 51 973 q 11 899 11 928 q 30 845 11 867 q 81 823 50 823 l 410 823 q 463 844 441 823 q 485 898 485 866 "},"Z":{"x_min":-12,"x_max":795,"ha":810,"o":"m 795 95 q 765 164 795 136 q 697 193 736 193 l 283 193 l 731 828 q 751 863 741 845 q 761 904 761 881 q 748 947 761 929 q 717 977 736 965 q 675 994 698 988 q 631 1000 652 1000 l 4 1000 l 4 808 l 456 808 l 8 168 q -7 136 -2 154 q -12 102 -12 119 q 24 25 -12 50 q 107 0 61 0 l 697 0 q 765 27 736 0 q 795 95 795 55 "},"u":{"x_min":46,"x_max":712,"ha":787,"o":"m 712 306 l 712 648 q 681 723 712 692 q 607 755 650 755 q 566 746 585 755 q 532 723 547 738 q 510 688 518 709 q 502 646 502 668 l 502 307 q 472 209 502 245 q 379 173 442 173 q 285 209 315 173 q 256 307 256 246 l 256 735 l 104 735 l 46 735 l 46 305 q 134 63 46 141 q 379 -14 223 -14 q 624 63 536 -14 q 712 306 712 141 "},"Ó":{"x_min":15,"x_max":964,"ha":1013,"o":"m 679 1223 q 656 1278 679 1255 q 602 1301 634 1301 q 571 1294 585 1301 q 527 1280 560 1292 q 456 1254 494 1269 q 388 1225 419 1239 q 354 1206 358 1212 q 317 1176 331 1196 q 304 1132 304 1156 q 327 1077 304 1100 q 382 1055 351 1055 q 414 1061 396 1055 q 438 1069 420 1063 q 479 1084 456 1075 q 528 1102 503 1092 q 575 1123 554 1113 q 612 1139 597 1132 q 630 1150 627 1146 q 665 1179 651 1159 q 679 1223 679 1199 m 491 1013 q 299 971 386 1013 q 149 859 212 929 q 50 696 85 789 q 15 499 15 603 q 50 303 15 396 q 148 140 85 210 q 298 27 211 69 q 490 -14 385 -14 q 680 27 593 -14 q 831 140 767 69 q 929 303 894 210 q 964 499 964 396 q 929 695 964 602 q 831 858 894 788 q 682 971 769 929 q 491 1013 595 1013 m 745 492 q 728 376 745 432 q 680 276 712 320 q 600 206 648 233 q 487 179 551 179 q 376 207 423 179 q 297 281 328 235 q 250 384 265 327 q 236 499 236 441 q 250 614 236 557 q 297 717 265 671 q 376 791 328 763 q 487 820 423 820 q 603 791 554 820 q 683 716 652 763 q 730 611 715 670 q 745 492 745 552 "},"k":{"x_min":7,"x_max":668.5,"ha":700,"o":"m 668 101 l 379 417 q 402 437 385 423 q 441 471 419 452 q 488 512 464 491 q 533 553 513 532 q 568 589 554 573 q 585 614 582 606 q 596 633 592 623 q 600 655 600 643 q 570 725 600 696 q 499 755 540 755 q 454 742 475 755 q 413 711 433 730 l 215 519 l 215 980 q 185 1055 215 1024 q 111 1087 155 1087 q 37 1055 68 1087 q 7 979 7 1024 l 7 0 l 215 0 l 215 321 l 501 -22 l 668 101 "},"Ù":{"x_min":48,"x_max":911,"ha":993,"o":"m 663 1134 q 650 1178 663 1158 q 615 1206 637 1198 q 581 1226 611 1212 q 514 1254 551 1240 q 442 1281 476 1269 q 397 1296 408 1293 q 365 1303 380 1303 q 311 1280 333 1303 q 289 1225 289 1257 q 302 1181 289 1201 q 339 1151 316 1161 q 374 1132 343 1145 q 442 1104 404 1119 q 512 1078 479 1090 q 556 1064 546 1066 q 588 1058 570 1058 q 641 1080 619 1058 q 663 1134 663 1102 m 911 401 l 911 898 q 879 977 911 944 q 802 1011 847 1011 q 726 978 757 1011 q 695 900 695 946 l 695 396 q 636 236 695 296 q 479 177 577 177 q 322 236 381 177 q 264 396 264 296 l 264 1003 l 48 1003 l 48 401 q 80 228 48 304 q 171 98 113 151 q 308 16 229 44 q 479 -12 386 -12 q 651 16 572 -12 q 787 98 729 44 q 878 228 845 151 q 911 401 911 304 "},"€":{"x_min":14,"x_max":916,"ha":962,"o":"m 872 603 q 841 657 872 635 q 767 679 810 679 l 376 679 q 453 764 406 730 q 564 811 500 799 q 607 816 586 816 q 724 792 671 816 q 824 730 776 768 l 900 886 q 832 934 871 911 q 747 972 792 956 q 657 999 702 989 q 572 1009 611 1009 q 557 1009 565 1009 q 542 1007 550 1009 q 407 972 470 1000 q 293 902 345 945 q 204 802 242 859 q 144 679 166 745 l 14 679 l 14 530 l 116 530 q 115 513 116 521 q 115 496 115 505 q 115 484 115 489 q 116 472 116 478 l 14 472 l 14 325 l 144 325 q 172 256 155 288 q 208 192 189 223 q 376 41 275 94 q 602 -11 476 -11 q 669 -6 633 -11 q 739 7 704 -2 q 807 31 775 16 q 866 69 840 47 q 901 108 886 86 q 916 162 916 131 q 888 229 916 202 q 822 257 861 257 q 778 246 801 257 q 726 223 754 236 q 663 200 697 210 q 587 190 629 190 q 456 227 509 190 q 372 325 402 265 l 767 325 q 840 345 809 325 q 872 397 872 366 q 841 450 872 429 q 767 472 810 472 l 333 472 q 332 487 333 480 q 331 502 331 495 q 332 516 331 509 q 333 530 333 523 l 767 530 q 840 550 809 530 q 872 603 872 571 "},"¢":{"x_min":19,"x_max":634,"ha":678,"o":"m 634 624 q 612 682 634 659 q 558 721 590 706 q 490 743 526 735 q 425 751 454 751 q 405 753 414 753 q 387 753 395 753 q 387 766 387 755 q 388 791 387 778 q 389 815 389 804 q 388 829 389 826 q 382 855 389 840 q 362 870 376 870 q 341 856 347 870 q 335 829 335 842 q 332 814 332 825 q 333 789 332 803 q 335 764 335 775 q 335 749 335 753 q 209 707 267 741 q 108 622 150 672 q 42 507 66 571 q 19 371 19 442 q 42 235 19 302 q 108 116 66 169 q 209 28 150 63 q 339 -6 267 -6 q 337 -24 339 -10 q 335 -54 335 -38 q 335 -82 335 -69 q 336 -99 335 -96 q 342 -126 336 -111 q 363 -142 348 -142 q 383 -127 378 -142 q 389 -100 389 -112 q 389 -87 389 -99 q 389 -64 389 -76 q 389 -40 389 -51 q 389 -28 389 -29 q 406 -9 397 -17 q 458 -2 428 -9 q 520 12 488 3 q 580 29 552 21 q 625 43 608 38 l 591 222 l 548 206 q 538 204 546 206 q 527 202 530 202 q 465 190 496 196 q 402 181 433 183 q 394 188 398 181 q 387 196 390 195 l 387 561 q 401 560 394 560 q 416 558 409 560 q 474 546 446 554 q 531 531 503 537 l 533 531 q 567 532 548 528 q 615 565 597 539 q 634 624 634 592 m 338 192 q 256 269 281 219 q 231 379 231 318 q 256 485 231 437 q 338 553 281 532 l 338 192 "},"ß":{"x_min":5,"x_max":713,"ha":744,"o":"m 713 331 q 701 414 713 373 q 668 490 689 455 q 616 552 647 525 q 544 592 584 578 q 611 680 588 628 q 635 791 635 732 q 611 907 635 854 q 547 997 587 960 q 452 1056 507 1035 q 337 1077 398 1077 q 198 1051 259 1077 q 94 979 136 1025 q 28 868 51 932 q 5 727 5 803 l 5 -313 l 215 -313 l 215 742 q 221 798 215 771 q 240 845 227 825 q 276 878 254 866 q 331 891 299 891 q 410 856 379 891 q 442 774 442 822 q 430 725 442 745 q 399 691 418 706 q 357 660 380 675 q 312 624 334 645 q 297 602 303 611 q 292 573 292 592 q 307 523 292 539 q 347 496 323 506 q 399 477 371 485 q 450 455 427 470 q 490 412 474 439 q 506 338 506 385 q 490 260 506 288 q 451 217 474 232 q 401 194 428 202 q 352 175 375 185 q 313 147 329 164 q 298 96 298 130 q 335 14 298 42 q 421 -12 372 -12 q 537 19 484 -12 q 629 101 590 51 q 690 212 668 151 q 713 331 713 273 "},"é":{"x_min":-6.890625,"x_max":712,"ha":731,"o":"m 538 971 q 515 1025 538 1003 q 461 1047 492 1047 q 429 1042 446 1047 q 404 1035 423 1040 q 363 1020 386 1029 q 314 1001 340 1011 q 266 982 288 992 q 229 965 244 972 q 212 954 214 958 q 177 925 191 946 q 163 880 163 904 q 186 825 163 847 q 240 803 209 803 q 273 809 258 803 q 298 817 280 811 q 340 832 316 823 q 389 850 363 840 q 436 871 414 861 q 473 887 458 880 q 489 898 488 894 q 524 927 511 907 q 538 971 538 947 m 712 400 q 683 537 712 472 q 607 650 654 601 q 495 727 559 699 q 362 756 431 756 q 215 726 283 756 q 98 644 148 696 q 21 524 48 593 q -6 374 -6 454 q 23 215 -6 286 q 106 94 53 144 q 230 15 159 43 q 385 -12 302 -12 q 484 -2 437 -12 q 578 25 531 6 l 550 189 q 475 173 513 181 q 401 166 438 166 q 281 206 331 166 q 216 313 231 246 l 614 313 q 686 330 661 313 q 712 400 712 347 m 492 434 l 216 434 q 230 492 220 464 q 257 543 240 521 q 299 578 274 565 q 359 592 325 592 q 415 578 390 592 q 456 542 439 564 q 483 491 473 519 q 494 434 494 463 l 492 434 "},"s":{"x_min":22.03125,"x_max":611,"ha":655,"o":"m 611 220 q 583 320 611 280 q 515 389 556 361 q 425 436 473 417 q 335 470 376 455 q 267 500 294 485 q 240 538 240 516 q 246 564 240 553 q 264 582 253 575 q 289 594 275 591 q 317 598 303 598 q 374 589 347 598 q 425 571 401 581 q 472 552 450 560 q 514 544 493 544 q 568 566 545 544 q 592 623 592 589 q 560 687 592 660 q 486 728 529 713 q 398 751 443 744 q 326 758 353 758 q 226 744 277 758 q 133 702 175 730 q 64 632 91 674 q 37 532 37 589 q 64 436 37 474 q 132 372 91 397 q 220 330 173 346 q 309 299 268 314 q 376 267 349 285 q 404 222 404 250 q 395 192 404 204 q 372 171 386 179 q 342 159 359 162 q 311 156 326 156 q 256 163 287 156 q 195 183 226 171 q 135 208 164 194 q 83 235 105 222 l 22 81 q 160 13 81 39 q 314 -13 239 -13 q 417 0 364 -13 q 513 43 470 14 q 583 116 556 73 q 611 220 611 160 "},"B":{"x_min":30,"x_max":750,"ha":807,"o":"m 750 298 q 720 421 750 365 q 635 510 690 478 q 604 525 624 517 q 574 536 585 533 q 644 614 620 566 q 668 721 668 662 q 642 838 668 786 q 573 926 616 890 q 475 981 530 962 q 359 1000 419 1000 l 141 1000 q 61 968 93 1000 q 30 887 30 936 l 30 -1 q 116 -1 61 -1 q 233 -1 172 -1 q 350 -1 295 -1 q 439 -1 408 -1 q 559 20 503 -1 q 658 81 616 42 q 725 175 700 120 q 750 298 750 230 m 247 808 l 350 808 q 391 800 371 808 q 425 779 410 792 q 450 748 440 766 q 460 708 460 730 q 449 666 460 684 q 423 633 439 647 q 386 612 406 619 q 344 605 365 605 l 247 605 l 247 808 m 246 424 l 414 424 q 459 414 438 424 q 496 389 480 405 q 522 353 512 374 q 532 307 532 332 q 522 261 532 282 q 496 225 512 240 q 458 201 480 210 q 413 192 436 192 l 246 192 l 246 424 "},"…":{"x_min":38,"x_max":912,"ha":983,"o":"m 912 96 q 879 175 912 142 q 800 209 846 209 q 722 175 755 209 q 690 95 690 142 q 722 16 690 49 q 801 -17 755 -17 q 879 16 846 -17 q 912 96 912 49 m 585 96 q 552 175 585 142 q 474 209 520 209 q 396 175 428 209 q 364 95 364 142 q 396 16 364 49 q 474 -17 428 -17 q 552 16 520 -17 q 585 96 585 49 m 258 97 q 226 175 258 142 q 148 209 194 209 q 70 175 103 209 q 38 95 38 142 q 70 16 38 49 q 149 -17 103 -17 q 227 16 194 -17 q 260 97 260 49 l 258 97 "},"?":{"x_min":-2.859375,"x_max":630,"ha":650,"o":"m 630 744 q 602 867 630 815 q 527 954 574 919 q 422 1007 481 990 q 300 1025 363 1025 q 237 1018 270 1025 q 172 1000 204 1012 q 110 970 140 988 q 55 927 80 952 q 14 871 31 902 q -2 803 -2 840 q 19 737 -2 766 q 81 708 41 708 q 123 721 108 708 q 152 753 138 735 l 153 755 q 218 812 180 791 q 304 833 256 833 q 381 808 348 833 q 415 735 415 784 q 399 683 415 702 q 359 653 383 664 q 308 633 335 641 q 257 615 280 626 q 217 585 233 603 q 202 535 202 567 l 202 272 l 258 272 l 409 272 l 409 487 q 496 519 456 497 q 567 574 537 541 q 613 649 597 606 q 630 744 630 692 m 304 218 q 220 183 255 218 q 186 97 186 147 q 221 12 186 47 q 305 -22 256 -22 q 389 12 354 -22 q 424 99 424 47 q 389 185 424 150 q 304 220 354 220 l 304 218 "},"H":{"x_min":41,"x_max":890,"ha":965,"o":"m 890 97 l 890 1000 l 672 1000 l 672 605 l 257 605 l 257 899 q 227 977 257 947 q 149 1011 197 1011 q 72 978 104 1011 q 41 899 41 945 l 41 0 l 257 0 l 257 415 l 673 415 l 673 95 q 682 54 673 73 q 705 20 691 34 q 739 -3 719 5 q 781 -12 759 -12 q 857 19 825 -12 q 890 97 890 51 "},"î":{"x_min":4,"x_max":517,"ha":539,"o":"m 517 881 q 504 926 517 906 q 467 955 491 945 l 300 1022 q 281 1029 292 1026 q 259 1033 270 1033 q 239 1029 249 1033 q 218 1022 229 1026 l 51 952 q 16 924 29 944 q 4 881 4 905 q 26 825 4 849 q 79 802 48 802 q 118 811 93 802 q 170 831 143 820 q 221 854 196 842 q 260 872 247 866 q 298 854 274 865 q 348 831 322 842 q 399 812 375 820 q 437 804 422 804 q 493 826 469 804 q 517 881 517 849 m 378 0 l 378 650 q 369 690 378 670 q 347 724 361 709 q 314 747 333 738 q 274 757 296 757 q 199 726 230 757 q 168 650 168 695 l 168 0 l 378 0 "},"c":{"x_min":0,"x_max":614,"ha":637,"o":"m 398 750 q 214 714 299 750 q 73 599 129 679 q 20 493 40 552 q 0 372 0 434 q 27 220 0 290 q 103 99 54 151 q 218 18 152 47 q 365 -11 285 -11 q 370 -12 367 -12 q 375 -11 374 -12 q 447 -6 406 -11 q 525 13 488 -1 q 588 54 562 27 q 614 122 614 80 q 586 186 614 158 q 522 214 559 214 q 491 208 509 214 q 453 196 473 203 q 411 185 432 190 q 370 181 390 181 q 302 198 331 181 q 252 242 273 215 q 222 304 232 269 q 212 373 212 339 q 222 445 212 411 q 254 504 233 479 q 305 545 274 530 q 375 561 336 561 q 464 543 419 561 q 552 512 510 526 q 562 554 555 529 q 578 606 570 579 q 593 658 586 633 q 601 699 600 683 q 503 737 551 724 q 398 750 456 750 "},"¶":{"x_min":28.140625,"x_max":770,"ha":826,"o":"m 770 954 q 756 986 770 973 q 723 1000 742 1000 l 308 1000 q 198 977 250 1000 q 109 914 147 954 q 49 822 71 874 q 28 711 28 770 q 49 599 28 651 q 109 507 71 547 q 198 445 147 467 q 308 422 250 422 l 397 422 l 397 -301 l 492 -301 l 492 908 l 576 908 l 576 -302 l 673 -302 l 673 908 q 701 908 685 908 q 734 911 719 908 q 759 924 749 914 q 770 954 770 934 "},"•":{"x_min":14,"x_max":392,"ha":468,"o":"m 392 500 q 377 574 392 538 q 336 636 362 609 q 275 677 310 662 q 203 693 241 693 q 129 677 163 693 q 69 636 95 662 q 28 574 43 609 q 14 500 14 538 q 28 425 14 459 q 69 363 43 390 q 129 322 95 337 q 203 307 163 307 q 275 322 241 307 q 336 363 310 337 q 377 425 362 390 q 392 500 392 459 "},"¥":{"x_min":18,"x_max":806,"ha":854,"o":"m 806 899 q 797 940 806 921 q 775 975 789 960 q 741 999 761 990 q 699 1008 721 1008 q 646 993 671 1008 q 604 954 621 978 l 410 664 l 219 954 q 178 993 204 978 q 124 1009 152 1009 q 82 1000 102 1009 q 48 975 62 991 q 26 940 34 960 q 18 897 18 920 q 24 866 18 882 q 38 838 30 850 l 220 583 l 76 583 q 66 575 70 583 q 57 558 61 567 q 51 538 53 548 q 49 522 49 527 q 55 511 49 516 q 72 503 62 507 q 91 498 81 500 q 107 496 102 496 l 284 496 l 302 469 l 305 437 l 76 437 q 66 429 70 437 q 57 412 61 421 q 51 392 53 402 q 49 377 49 382 q 55 366 49 371 q 72 358 62 362 q 91 353 81 355 q 107 351 102 351 l 305 351 l 305 0 l 521 0 l 521 352 l 745 352 q 774 365 762 352 q 786 396 786 379 q 774 425 786 413 q 744 438 762 438 l 522 438 l 522 469 l 539 497 l 744 497 q 773 510 763 497 q 784 541 784 523 q 773 571 784 559 q 743 584 762 584 l 606 584 l 786 838 q 806 899 806 864 "},"(":{"x_min":12.5625,"x_max":284.796875,"ha":308,"o":"m 18 506 q 18 403 18 463 q 34 276 18 342 q 51 168 41 228 q 77 52 61 108 q 117 -45 94 -3 q 174 -98 141 -87 q 183 -101 179 -100 q 193 -103 187 -103 q 225 -96 209 -103 q 253 -78 241 -90 q 273 -51 265 -66 q 282 -19 282 -36 q 275 26 282 3 q 262 73 269 49 q 212 287 232 180 q 192 506 192 394 q 199 635 192 563 q 220 771 207 706 q 234 840 227 803 q 250 914 242 877 q 266 984 258 950 q 284 1044 275 1019 q 262 1049 286 1044 q 211 1062 239 1055 q 158 1075 182 1070 q 134 1081 134 1081 q 107 1004 121 1045 q 79 919 92 963 q 56 832 66 875 q 37 748 45 788 q 19 628 26 688 q 12 505 12 567 l 18 506 "},"U":{"x_min":44,"x_max":907,"ha":986,"o":"m 907 401 l 907 898 q 875 977 907 944 q 798 1011 843 1011 q 722 978 753 1011 q 691 900 691 946 l 691 396 q 632 236 691 296 q 475 177 573 177 q 318 236 377 177 q 260 396 260 296 l 260 1003 l 44 1003 l 44 401 q 76 228 44 304 q 167 98 109 151 q 303 16 225 44 q 475 -12 382 -12 q 647 16 568 -12 q 783 98 725 44 q 874 228 841 151 q 907 401 907 304 "},"Ñ":{"x_min":30,"x_max":882,"ha":943,"o":"m 882 97 l 882 899 q 873 942 882 922 q 850 977 864 962 q 815 1001 835 992 q 773 1011 795 1011 q 731 1001 751 1011 q 697 977 712 992 q 674 941 683 962 q 666 898 666 920 l 666 364 l 230 961 q 189 998 213 983 q 138 1013 166 1013 q 61 979 92 1013 q 30 900 30 946 l 30 1 l 246 1 l 246 642 l 689 30 q 726 0 703 10 q 773 -12 748 -12 q 850 19 819 -12 q 882 97 882 51 m 712 1169 l 699 1169 l 621 1169 q 618 1147 621 1159 q 610 1125 615 1135 q 597 1107 606 1114 q 578 1101 589 1101 q 529 1111 555 1101 q 476 1134 503 1121 q 420 1157 449 1147 q 362 1168 391 1168 q 302 1152 327 1168 q 261 1110 277 1136 q 237 1053 245 1084 q 230 991 230 1022 l 230 975 l 321 975 q 323 996 321 984 q 330 1018 325 1008 q 343 1036 336 1029 q 363 1043 351 1043 q 409 1032 383 1043 q 463 1009 435 1022 q 520 986 491 997 q 578 976 550 976 q 640 994 615 976 q 681 1040 665 1012 q 704 1103 697 1069 q 712 1169 712 1137 "},"F":{"x_min":26,"x_max":569.296875,"ha":616,"o":"m 569 805 l 569 1001 l 139 1001 q 58 969 91 1001 q 26 887 26 937 l 26 0 l 244 0 l 244 394 l 464 394 q 532 421 503 394 q 561 488 561 448 q 532 557 561 528 q 464 587 503 587 l 245 587 l 245 805 l 569 805 "},":":{"x_min":30,"x_max":270,"ha":312,"o":"m 268 565 q 232 651 268 616 q 148 686 197 686 q 102 676 123 686 q 65 651 81 667 q 39 612 49 634 q 30 565 30 590 q 64 479 30 514 q 148 444 99 444 q 232 479 197 444 q 268 565 268 514 m 270 99 q 234 184 270 149 q 150 220 199 220 q 65 184 100 220 q 30 99 30 149 q 39 51 30 73 q 66 13 49 29 q 105 -12 83 -2 q 151 -22 126 -22 q 197 -12 175 -22 q 234 13 218 -2 q 260 51 250 29 q 270 99 270 73 "},"Û":{"x_min":48,"x_max":911,"ha":993,"o":"m 734 1136 q 721 1179 734 1159 q 685 1209 708 1200 l 519 1276 q 499 1283 509 1279 q 478 1287 489 1287 q 456 1283 467 1287 q 437 1275 446 1279 l 268 1207 q 234 1178 246 1198 q 222 1134 222 1158 q 243 1078 222 1102 q 296 1055 265 1055 q 335 1064 310 1055 q 388 1084 360 1073 q 439 1107 415 1095 q 478 1125 464 1119 q 515 1108 491 1119 q 566 1085 539 1097 q 617 1065 592 1073 q 656 1057 641 1057 q 710 1080 687 1057 q 734 1136 734 1104 m 911 401 l 911 898 q 879 977 911 944 q 802 1011 847 1011 q 726 978 757 1011 q 695 900 695 946 l 695 396 q 636 236 695 296 q 479 177 577 177 q 322 236 381 177 q 264 396 264 296 l 264 1003 l 48 1003 l 48 401 q 80 228 48 304 q 171 98 113 151 q 308 16 229 44 q 479 -12 386 -12 q 651 16 572 -12 q 787 98 729 44 q 878 228 845 151 q 911 401 911 304 "},"*":{"x_min":20,"x_max":494.40625,"ha":534,"o":"m 256 1019 q 210 1003 233 1019 q 187 959 187 987 q 198 897 187 929 q 216 838 209 865 l 131 906 q 123 911 131 906 q 112 916 116 916 q 91 911 106 916 q 60 902 77 907 q 32 890 44 896 q 20 878 20 884 q 26 864 20 875 q 42 841 33 853 q 60 818 51 828 q 71 806 68 807 l 173 761 l 75 715 q 62 704 71 714 q 44 681 53 693 q 27 657 34 668 q 20 642 20 646 q 32 631 20 636 q 62 620 45 625 q 93 612 78 615 q 113 609 108 609 q 134 620 119 609 q 164 644 148 631 q 194 670 180 657 q 213 686 207 682 q 206 662 210 681 q 198 621 202 643 q 191 579 194 599 q 189 555 189 560 q 196 538 189 546 q 214 524 203 530 q 236 515 224 518 q 256 512 248 512 q 277 515 264 512 q 300 524 289 518 q 318 538 311 530 q 326 554 326 546 q 322 579 326 560 q 315 621 319 599 q 307 662 311 643 q 301 686 302 681 q 319 670 305 682 q 349 644 334 657 q 379 620 365 631 q 400 609 393 609 q 420 613 404 609 q 452 624 435 618 q 481 636 468 631 q 494 642 494 642 q 486 653 494 642 q 469 677 479 664 q 450 702 459 690 q 437 715 441 714 l 340 763 l 442 807 q 459 827 446 809 q 482 860 472 845 q 493 878 491 875 q 471 888 490 879 q 430 906 453 896 q 400 916 407 916 q 389 911 397 916 q 381 906 381 906 l 297 838 q 315 897 304 865 q 327 959 327 929 q 303 1003 327 987 q 256 1019 280 1019 "},"†":{"x_min":-4,"x_max":806,"ha":832,"o":"m 806 578 q 776 652 806 624 q 742 675 761 667 q 702 684 724 684 l 496 684 l 496 914 q 488 957 496 937 q 466 994 481 978 q 391 1026 437 1026 q 316 994 347 1026 q 293 957 301 977 q 285 913 285 937 l 285 683 l -4 683 l -4 476 l 285 476 l 285 -296 l 497 -296 l 497 477 l 703 477 q 777 507 747 477 q 806 578 806 536 "},"°":{"x_min":37,"x_max":415,"ha":468,"o":"m 415 827 q 400 901 415 866 q 359 962 385 937 q 300 1003 334 988 q 226 1019 265 1019 q 152 1003 186 1019 q 92 962 118 988 q 51 901 66 937 q 37 825 37 866 q 51 752 37 786 q 92 690 66 717 q 152 649 118 664 q 226 634 186 634 q 298 649 264 634 q 359 690 333 664 q 400 751 385 716 q 415 827 415 786 m 351 827 q 341 776 351 800 q 314 735 331 753 q 274 708 298 718 q 226 699 251 699 q 177 708 200 699 q 138 735 155 718 q 111 776 121 753 q 101 827 101 800 q 110 876 101 853 q 137 916 120 899 q 177 944 154 934 q 226 955 200 955 q 274 944 251 955 q 314 916 298 934 q 341 876 331 899 q 351 827 351 853 "},"V":{"x_min":-43.390625,"x_max":825,"ha":810,"o":"m 825 902 q 816 945 825 924 q 791 979 807 965 q 756 1002 776 994 q 714 1011 736 1011 q 652 989 679 1011 q 614 934 626 967 l 404 324 l 158 1013 l -43 936 l 298 70 q 337 10 313 34 q 401 -14 360 -14 q 470 8 446 -14 q 509 70 494 30 l 815 858 q 825 902 825 881 "},"\u001e":{"x_min":0,"x_max":0,"ha":391},"å":{"x_min":11,"x_max":729,"ha":767,"o":"m 394 1058 q 341 1048 367 1058 q 295 1022 316 1039 q 263 980 275 1005 q 251 927 251 956 q 263 874 251 898 q 295 832 275 849 q 341 806 316 815 q 394 797 367 797 q 446 806 420 797 q 491 833 472 816 q 523 874 511 851 q 536 927 536 898 q 523 980 536 956 q 491 1021 511 1005 q 446 1048 472 1038 q 393 1058 420 1058 l 394 1058 m 437 927 q 424 896 437 909 q 393 883 411 883 q 362 896 376 883 q 349 928 349 909 q 361 960 349 948 q 393 972 374 972 q 424 959 411 972 q 437 927 437 946 m 729 -3 l 729 653 q 710 716 729 690 q 655 743 692 743 q 608 743 633 747 q 557 722 584 740 q 522 686 529 705 q 514 666 514 666 q 490 679 514 666 q 426 705 465 692 q 338 724 388 717 q 239 717 288 730 q 143 668 185 702 q 71 588 100 634 q 26 484 42 541 q 11 369 11 427 q 34 224 11 293 q 102 103 58 155 q 210 19 147 50 q 351 -12 273 -12 q 458 12 409 -12 q 539 90 508 37 q 538 78 538 90 q 538 51 538 66 q 538 20 538 35 q 538 -3 538 5 l 729 -3 m 527 376 q 519 302 527 338 q 493 235 512 265 q 446 186 475 205 q 374 168 416 168 q 305 186 333 168 q 258 233 276 204 q 230 298 239 262 q 222 370 222 334 q 230 441 222 405 q 258 506 239 477 q 307 554 277 535 q 377 572 336 572 q 446 554 418 572 q 493 509 475 537 q 518 447 510 481 q 527 376 527 412 "},"0":{"x_min":9.640625,"x_max":764,"ha":801,"o":"m 11 500 q 20 379 11 441 q 51 257 30 316 q 107 147 73 198 q 189 58 141 96 q 280 7 231 26 q 386 -12 329 -12 q 495 7 445 -12 q 586 58 544 26 q 668 148 634 96 q 723 260 702 200 q 754 382 744 319 q 764 505 764 446 q 753 626 764 564 q 721 748 743 689 q 665 858 700 807 q 584 945 631 909 q 493 995 542 977 q 386 1014 444 1014 q 280 995 329 1014 q 189 944 231 976 q 106 854 140 907 q 51 743 72 802 q 19 622 30 684 q 9 500 9 559 l 11 500 m 557 501 q 550 405 557 461 q 525 297 543 349 q 473 210 506 246 q 386 174 439 174 q 300 210 333 174 q 248 296 267 246 q 224 403 230 347 q 218 500 218 460 q 224 594 218 539 q 250 700 231 649 q 302 787 269 751 q 386 824 335 824 q 472 787 439 824 q 524 701 505 751 q 550 595 543 650 q 557 501 557 540 "},"”":{"x_min":-4,"x_max":618.921875,"ha":637,"o":"m 618 993 l 433 1082 l 289 757 q 280 714 280 735 q 308 642 280 673 q 378 612 337 612 q 432 627 406 612 q 470 671 458 643 l 618 993 m 334 993 l 148 1082 l 4 757 q -4 714 -4 738 q 23 642 -4 673 q 92 612 51 612 q 146 628 121 612 q 184 671 172 645 l 334 993 "},"¾":{"x_min":0,"x_max":0,"ha":391},"@":{"x_min":-35,"x_max":889,"ha":961,"o":"m 889 377 q 857 548 889 470 q 767 683 825 626 q 633 772 710 740 q 465 804 555 804 q 267 763 358 804 q 108 652 175 722 q 3 486 41 581 q -35 283 -35 391 q 1 85 -35 179 q 103 -80 38 -9 q 257 -194 167 -152 q 451 -237 346 -237 l 451 -166 q 440 -166 449 -166 q 418 -164 431 -166 q 397 -160 404 -163 q 203 -71 278 -141 q 84 115 128 0 q 56 278 56 192 q 85 451 56 369 q 170 594 115 532 q 301 691 226 655 q 469 728 377 728 q 608 701 545 728 q 716 627 671 675 q 785 514 761 579 q 810 372 810 448 q 805 305 810 340 q 790 236 800 271 q 765 170 780 201 q 728 115 750 139 q 687 74 710 96 q 636 53 664 53 q 591 76 604 53 q 579 128 579 100 q 585 212 579 169 q 599 296 592 256 q 624 442 611 370 q 651 587 637 514 l 580 587 l 569 516 q 521 577 557 556 q 446 599 486 599 q 337 561 384 599 q 259 469 290 524 q 212 350 228 414 q 197 232 197 286 q 206 149 197 192 q 236 72 216 107 q 289 16 256 38 q 369 -5 321 -5 q 455 25 418 -5 q 509 100 492 56 q 517 53 509 75 q 543 17 526 32 q 580 -5 559 2 q 626 -14 601 -14 q 740 26 691 -14 q 822 126 789 66 q 872 254 856 186 q 889 377 889 322 m 540 428 q 533 352 540 400 q 514 252 526 303 q 482 153 501 200 q 437 82 463 107 q 409 63 425 71 q 376 56 393 56 q 327 70 346 56 q 298 107 308 85 q 284 156 287 129 q 281 207 281 182 q 289 300 281 245 q 319 409 298 356 q 372 499 339 461 q 452 537 404 537 q 518 502 497 537 q 540 428 540 468 "},"ö":{"x_min":15,"x_max":739,"ha":780,"o":"m 414 916 q 443 844 414 874 q 513 815 472 815 q 584 844 555 815 q 614 917 614 874 q 584 990 614 960 q 514 1020 555 1020 q 442 989 471 1020 q 413 916 413 959 l 414 916 m 343 917 q 313 989 343 959 q 242 1020 284 1020 q 170 989 199 1020 q 142 914 142 959 q 171 844 142 873 q 242 815 201 815 q 313 844 284 815 q 343 917 343 874 m 739 373 q 711 521 739 451 q 636 644 684 591 q 521 727 587 696 q 377 758 455 758 q 232 727 298 758 q 117 644 166 696 q 42 521 69 591 q 15 372 15 451 q 42 223 15 293 q 117 100 69 152 q 232 16 166 47 q 378 -15 299 -15 q 523 16 457 -15 q 636 100 589 47 q 711 224 684 154 q 739 373 739 294 m 225 369 q 233 440 225 404 q 261 505 242 476 q 309 553 280 534 q 378 572 339 572 q 446 553 417 572 q 494 506 475 535 q 521 441 513 477 q 530 370 530 405 q 521 297 530 333 q 494 232 513 261 q 446 184 476 202 q 375 166 416 166 q 307 185 336 166 q 261 233 279 204 q 233 298 242 262 q 225 369 225 334 "},"i":{"x_min":63,"x_max":273,"ha":347,"o":"m 162 1014 q 108 991 130 1014 q 86 936 86 968 q 109 879 86 902 q 163 857 132 857 q 217 879 195 857 q 240 936 240 902 q 216 991 240 968 q 162 1014 193 1014 m 273 0 l 273 650 q 264 690 273 670 q 242 724 256 709 q 209 747 228 738 q 169 757 191 757 q 94 726 125 757 q 63 650 63 695 l 63 0 l 273 0 "},"Õ":{"x_min":8,"x_max":957,"ha":999,"o":"m 484 1013 q 292 971 379 1013 q 142 859 205 929 q 43 696 78 789 q 8 499 8 603 q 43 303 8 396 q 141 140 78 210 q 291 27 204 69 q 483 -14 378 -14 q 673 27 586 -14 q 824 140 760 69 q 922 303 887 210 q 957 499 957 396 q 922 695 957 602 q 824 858 887 788 q 675 971 762 929 q 484 1013 588 1013 m 738 492 q 721 376 738 432 q 673 276 705 320 q 593 206 641 233 q 480 179 544 179 q 369 207 416 179 q 290 281 321 235 q 243 384 258 327 q 229 499 229 441 q 243 614 229 557 q 290 717 258 671 q 369 791 321 763 q 480 820 416 820 q 596 791 547 820 q 676 716 645 763 q 723 611 708 670 q 738 492 738 552 m 742 1308 l 729 1308 l 650 1308 q 647 1286 650 1297 q 639 1264 644 1274 q 626 1246 635 1253 q 607 1240 618 1240 q 558 1250 584 1240 q 505 1273 533 1260 q 450 1295 478 1285 q 392 1306 421 1306 q 332 1290 357 1306 q 291 1248 307 1274 q 267 1191 275 1222 q 260 1129 260 1160 l 260 1113 l 351 1113 q 353 1134 351 1123 q 360 1156 355 1146 q 373 1174 365 1167 q 393 1181 380 1181 q 439 1170 413 1181 q 493 1148 465 1160 q 550 1125 520 1135 q 608 1115 579 1115 q 670 1133 645 1115 q 711 1179 695 1151 q 734 1242 726 1208 q 742 1308 742 1276 "},"þ":{"x_min":0,"x_max":0,"ha":391},"]":{"x_min":16.328125,"x_max":361,"ha":390,"o":"m 361 -24 l 361 1024 q 339 1082 361 1056 q 284 1108 318 1108 l 108 1108 q 43 1080 70 1108 q 16 1013 16 1052 q 49 943 16 967 q 122 919 81 919 q 134 919 125 917 q 147 921 144 921 l 147 79 l 39 79 l 39 -108 l 284 -108 q 339 -82 318 -108 q 361 -24 361 -56 "},"m":{"x_min":64,"x_max":1139,"ha":1247,"o":"m 1139 94 l 1139 497 q 1118 605 1139 557 q 1062 686 1098 652 q 977 738 1026 720 q 870 757 928 757 q 746 729 805 757 q 646 652 687 702 q 554 732 610 704 q 435 760 498 760 q 332 736 382 760 q 250 668 283 713 q 231 731 250 705 q 170 757 212 757 q 93 727 122 757 q 64 648 64 697 l 64 0 l 272 0 l 272 460 q 305 542 272 509 q 386 575 338 575 q 465 540 432 575 q 499 458 499 506 l 499 0 l 705 0 l 705 458 q 737 538 705 505 q 817 572 770 572 q 897 537 865 572 q 929 456 929 503 l 929 94 q 960 18 929 49 q 1035 -12 991 -12 q 1109 19 1079 -12 q 1139 94 1139 50 "},"\u001b":{"x_min":0,"x_max":0,"ha":391},"8":{"x_min":41,"x_max":742,"ha":811,"o":"m 742 312 q 732 387 742 350 q 703 457 722 425 q 656 514 684 490 q 589 551 627 539 q 663 637 635 584 q 691 748 691 690 q 676 835 691 794 q 635 909 661 876 q 528 990 593 965 q 394 1015 463 1015 q 255 990 322 1015 q 145 908 189 965 q 104 833 119 874 q 90 748 90 793 q 117 637 90 687 q 191 551 145 587 q 126 514 155 539 q 79 457 98 490 q 50 387 60 425 q 41 312 41 350 q 68 176 41 236 q 145 74 96 115 q 256 10 193 32 q 390 -12 320 -12 q 524 10 461 -12 q 636 74 588 32 q 713 176 684 115 q 742 312 742 236 m 289 736 q 318 809 289 779 q 390 840 347 840 q 463 810 432 840 q 494 736 494 780 q 464 660 494 693 q 392 628 435 628 q 318 659 348 628 q 289 736 289 691 m 390 474 q 444 462 419 474 q 487 433 468 451 q 515 388 505 414 q 526 333 526 363 q 516 277 526 304 q 489 229 506 250 q 446 196 471 208 q 390 184 420 184 q 336 196 360 184 q 293 229 311 208 q 266 276 276 250 q 257 332 257 303 q 293 432 257 390 q 390 474 330 474 "},"R":{"x_min":52,"x_max":797.828125,"ha":878,"o":"m 797 81 l 513 421 q 529 424 521 423 q 545 428 536 426 q 628 462 589 441 q 695 516 667 484 q 740 589 724 548 q 757 685 757 631 q 731 814 757 759 q 660 906 705 869 q 555 966 615 944 q 427 1001 495 989 q 386 1001 415 1001 q 320 1001 358 1001 q 240 1001 281 1001 q 160 1001 198 1001 q 92 1001 122 1001 q 52 1001 64 1001 l 52 98 q 60 56 52 76 q 83 19 69 35 q 117 -5 98 3 q 160 -14 137 -14 q 236 18 204 -14 q 268 95 268 51 l 268 410 l 621 -40 l 797 81 m 541 684 q 507 603 541 637 q 427 569 474 569 l 268 569 l 268 805 l 422 805 q 468 795 446 805 q 506 768 490 785 q 531 730 521 752 q 541 684 541 709 "},"á":{"x_min":16,"x_max":734,"ha":776,"o":"m 575 970 q 552 1024 575 1002 q 499 1047 530 1047 q 468 1041 484 1047 q 442 1034 461 1040 q 401 1019 424 1028 q 352 1001 378 1010 q 304 981 326 991 q 267 965 282 972 q 250 954 252 958 q 214 925 228 945 q 201 880 201 904 q 224 825 201 847 q 278 803 247 803 q 311 809 296 803 q 335 817 318 811 q 377 832 353 823 q 426 850 401 840 q 473 870 451 861 q 510 887 495 880 q 528 898 525 894 q 562 927 549 906 q 575 970 575 947 m 734 -3 l 734 653 q 715 716 734 690 q 659 743 696 743 q 613 743 638 747 q 561 722 588 740 q 527 686 534 705 q 519 666 519 666 q 495 679 519 666 q 432 705 470 692 q 343 724 393 717 q 244 717 293 730 q 148 668 190 702 q 76 588 105 634 q 31 484 47 541 q 16 369 16 427 q 39 224 16 293 q 107 103 63 155 q 215 19 152 50 q 356 -12 278 -12 q 464 12 415 -12 q 544 90 513 37 q 543 78 543 90 q 543 51 543 66 q 543 20 543 35 q 543 -3 543 5 l 734 -3 m 532 376 q 524 301 532 338 q 498 235 517 265 q 451 186 480 205 q 379 168 421 168 q 310 186 338 168 q 263 233 281 204 q 235 298 244 262 q 227 370 227 334 q 235 441 227 405 q 263 506 244 477 q 312 553 282 535 q 382 572 341 572 q 451 554 423 572 q 498 509 480 537 q 523 447 515 481 q 532 376 532 412 "},"×":{"x_min":0,"x_max":0,"ha":391},"o":{"x_min":30,"x_max":754,"ha":813,"o":"m 754 373 q 726 521 754 451 q 651 644 699 591 q 536 727 602 696 q 392 758 470 758 q 247 726 313 758 q 132 642 181 695 q 57 520 84 590 q 30 370 30 449 q 57 223 30 293 q 132 100 84 152 q 247 16 181 47 q 393 -15 314 -15 q 538 16 472 -15 q 651 100 604 47 q 726 224 699 154 q 754 373 754 294 m 545 372 q 536 299 545 336 q 509 233 528 262 q 462 185 491 204 q 392 166 432 166 q 323 185 352 166 q 276 234 294 204 q 248 300 257 263 q 240 372 240 337 q 249 442 240 406 q 277 506 259 477 q 324 553 295 535 q 392 572 352 572 q 460 553 431 572 q 509 507 490 535 q 536 442 528 479 q 545 372 545 406 "},"5":{"x_min":33,"x_max":714,"ha":774,"o":"m 714 347 q 693 462 714 408 q 636 557 673 516 q 547 621 599 597 q 434 644 495 644 q 379 640 407 644 q 325 626 351 636 l 355 804 l 666 804 l 700 1000 l 280 1000 q 209 977 237 1000 q 175 911 182 955 l 118 547 q 116 532 117 540 q 116 518 116 525 q 141 457 116 483 q 200 432 166 432 q 237 438 218 432 q 275 453 256 445 q 316 468 295 461 q 359 474 336 474 q 456 437 419 474 q 493 337 493 400 q 482 281 493 308 q 454 231 472 253 q 409 197 435 210 q 354 184 384 184 q 288 196 318 184 q 229 223 257 208 q 177 250 201 238 q 132 263 152 263 q 62 235 92 263 q 33 165 33 208 q 49 111 33 136 q 90 67 65 86 q 146 32 116 47 q 203 10 175 18 q 282 -8 242 -2 q 358 -15 323 -15 q 560 42 474 -15 q 688 207 645 100 q 707 275 701 239 q 714 347 714 311 "},"õ":{"x_min":19,"x_max":743,"ha":788,"o":"m 743 373 q 715 521 743 451 q 640 644 688 591 q 525 727 591 696 q 381 758 459 758 q 236 726 302 758 q 121 642 170 695 q 46 520 73 590 q 19 370 19 449 q 46 223 19 293 q 121 100 73 152 q 236 16 170 47 q 382 -15 303 -15 q 527 16 461 -15 q 640 100 593 47 q 715 224 688 154 q 743 373 743 294 m 534 372 q 525 299 534 336 q 498 233 517 262 q 451 185 480 204 q 381 166 421 166 q 312 185 341 166 q 265 234 283 204 q 237 300 246 263 q 229 372 229 337 q 238 442 229 406 q 266 506 248 477 q 313 553 284 535 q 381 572 341 572 q 449 553 420 572 q 498 507 479 535 q 525 442 517 479 q 534 372 534 406 m 617 1030 l 604 1030 l 525 1030 q 522 1008 525 1020 q 514 986 519 996 q 501 968 510 975 q 482 962 493 962 q 434 972 459 962 q 381 995 408 982 q 325 1018 353 1008 q 268 1029 296 1029 q 207 1013 232 1029 q 166 971 182 997 q 143 914 151 945 q 135 852 135 883 q 134 843 133 849 q 135 836 135 838 l 226 836 q 228 857 226 845 q 235 879 230 869 q 248 897 240 890 q 268 904 255 904 q 314 893 288 904 q 368 870 340 883 q 425 847 396 857 q 483 837 454 837 q 545 855 520 837 q 586 901 570 873 q 609 964 602 930 q 617 1030 617 998 "},"7":{"x_min":31,"x_max":731,"ha":791,"o":"m 731 902 q 699 972 731 946 q 626 998 667 998 l 31 998 l 31 805 l 475 805 l 134 145 q 125 121 129 134 q 121 94 121 108 q 152 19 121 49 q 227 -9 183 -9 q 285 6 258 -9 q 327 51 313 22 l 720 859 q 731 902 731 878 "},"K":{"x_min":49,"x_max":840.75,"ha":921,"o":"m 840 95 q 810 172 840 138 l 466 531 l 813 867 l 655 1014 l 265 613 l 265 900 q 233 979 265 946 q 157 1012 202 1012 q 80 980 112 1012 q 49 902 49 948 l 49 0 l 265 0 l 265 448 l 651 24 q 733 -11 684 -11 q 808 19 776 -11 q 840 95 840 50 "},",":{"x_min":0,"x_max":321.21875,"ha":332,"o":"m 321 127 l 134 216 l 8 -75 q 1 -97 2 -86 q 0 -119 0 -108 q 27 -190 0 -159 q 96 -221 55 -221 q 151 -204 125 -221 q 189 -161 176 -187 l 321 127 "},"d":{"x_min":18,"x_max":735,"ha":780,"o":"m 735 96 l 735 1062 l 525 1062 l 525 687 q 355 758 455 758 q 215 726 277 758 q 109 642 152 695 q 41 519 65 588 q 18 376 18 451 q 41 234 18 304 q 107 110 64 165 q 211 22 149 55 q 348 -11 272 -11 q 459 13 406 -11 q 548 87 511 38 q 566 18 548 50 q 630 -13 585 -13 q 706 17 678 -13 q 735 96 735 48 m 530 361 q 520 291 530 324 q 493 232 511 258 q 445 190 474 206 q 378 175 416 175 q 310 193 339 175 q 263 238 282 211 q 236 302 245 266 q 228 373 228 337 q 237 443 228 408 q 265 505 246 477 q 313 550 284 533 q 381 568 341 568 q 452 549 423 568 q 498 501 481 530 q 522 435 515 472 q 530 361 530 398 "},"¨":{"x_min":0,"x_max":578,"ha":598,"o":"m 578 1023 q 554 1084 578 1059 q 495 1109 530 1109 q 435 1083 459 1109 q 412 1021 412 1057 q 437 964 412 988 q 495 940 462 940 q 554 963 530 940 q 578 1023 578 987 m 166 1024 q 142 1083 166 1058 q 84 1109 118 1109 q 24 1083 48 1109 q 0 1021 0 1057 q 24 962 0 986 q 84 938 48 938 q 142 963 118 938 q 166 1024 166 989 "},"Ô":{"x_min":8,"x_max":957,"ha":999,"o":"m 739 1135 q 726 1178 739 1158 q 690 1208 713 1199 l 522 1275 q 503 1282 514 1278 q 482 1286 493 1286 q 462 1282 472 1286 q 441 1273 452 1278 l 273 1205 q 239 1177 252 1197 q 226 1133 226 1157 q 248 1078 226 1102 q 302 1055 270 1055 q 341 1063 315 1055 q 392 1083 366 1072 q 444 1106 419 1094 q 483 1124 469 1118 q 520 1107 497 1118 q 571 1084 544 1096 q 621 1064 597 1072 q 660 1056 645 1056 q 715 1079 691 1056 q 739 1135 739 1103 m 484 1013 q 292 971 379 1013 q 142 859 205 929 q 43 696 78 789 q 8 499 8 603 q 43 303 8 396 q 141 140 78 210 q 291 27 204 69 q 483 -14 378 -14 q 673 27 586 -14 q 824 140 760 69 q 922 303 887 210 q 957 499 957 396 q 922 695 957 602 q 824 858 887 788 q 675 971 762 929 q 484 1013 588 1013 m 738 492 q 721 376 738 432 q 673 276 705 320 q 593 206 641 233 q 480 179 544 179 q 369 207 416 179 q 290 281 321 235 q 243 384 258 327 q 229 499 229 441 q 243 614 229 557 q 290 717 258 671 q 369 791 321 763 q 480 820 416 820 q 596 791 547 820 q 676 716 645 763 q 723 611 708 670 q 738 492 738 552 "},"E":{"x_min":29,"x_max":607.0625,"ha":659,"o":"m 136 0 l 607 0 l 607 194 l 245 194 l 245 404 l 469 404 q 538 431 509 404 q 567 499 567 458 q 540 565 567 540 q 507 587 525 579 q 466 596 488 596 l 245 596 l 245 805 l 494 805 q 561 833 533 805 q 589 902 589 861 q 562 970 589 942 q 495 999 534 999 l 286 999 q 242 999 281 999 q 156 999 204 999 q 71 999 110 999 q 29 999 33 999 l 29 113 q 37 70 29 91 q 59 34 45 49 q 93 9 73 19 q 136 0 113 0 "},"Y":{"x_min":-11,"x_max":784,"ha":799,"o":"m 784 900 q 775 941 784 922 q 753 976 767 961 q 719 1000 739 991 q 678 1010 699 1010 q 623 994 649 1010 q 582 955 597 979 l 389 665 l 157 1016 l -11 885 q -7 877 -11 882 q -2 869 -4 872 l 282 469 l 282 100 q 313 21 282 54 q 391 -12 344 -12 q 467 21 435 -12 q 500 100 500 54 l 500 469 l 763 839 q 778 868 773 853 q 784 900 784 883 "},"\"":{"x_min":38.109375,"x_max":416.5,"ha":471,"o":"m 416 1000 l 274 1000 l 246 668 l 374 668 l 416 1000 m 208 1000 l 66 1000 l 38 668 l 166 668 l 208 1000 "},"‹":{"x_min":33,"x_max":347,"ha":392,"o":"m 268 679 q 223 665 245 679 q 186 633 201 652 l 35 435 q 33 417 33 434 q 33 381 33 401 q 33 345 33 362 q 33 326 33 328 q 36 317 33 323 q 44 304 39 310 q 53 292 49 298 q 58 283 57 285 l 187 101 q 220 69 201 81 q 262 58 239 58 q 321 83 296 58 q 347 142 347 108 q 338 178 347 162 q 318 210 329 195 l 202 370 l 321 527 q 339 558 332 542 q 347 594 347 574 q 324 653 347 627 q 268 679 302 679 "},"ê":{"x_min":15.109375,"x_max":734,"ha":778,"o":"m 627 881 q 613 926 627 907 q 577 955 600 945 l 411 1022 q 391 1030 401 1026 q 370 1033 381 1033 q 350 1030 359 1033 q 329 1022 340 1026 l 161 953 q 127 925 140 944 q 115 882 115 905 q 136 826 115 850 q 189 803 158 803 q 228 811 203 803 q 280 831 253 820 q 332 854 308 842 q 370 872 356 866 q 408 854 384 865 q 458 831 431 842 q 509 812 485 820 q 549 804 534 804 q 603 826 580 804 q 627 881 627 849 m 734 400 q 705 537 734 472 q 629 650 676 601 q 517 727 581 699 q 384 756 453 756 q 237 726 305 756 q 120 644 170 696 q 43 524 70 593 q 15 374 15 454 q 45 215 15 286 q 128 94 75 144 q 252 15 181 43 q 407 -12 324 -12 q 506 -2 459 -12 q 600 25 553 6 l 572 189 q 497 173 535 181 q 423 166 460 166 q 303 206 354 166 q 238 313 253 246 l 636 313 q 708 330 683 313 q 734 400 734 347 m 514 434 l 238 434 q 252 492 242 464 q 280 543 263 521 q 322 578 297 565 q 381 592 347 592 q 437 578 412 592 q 478 542 461 564 q 505 491 495 519 q 516 434 516 463 l 514 434 "},"Ï":{"x_min":-46,"x_max":429,"ha":395,"o":"m 429 1163 q 399 1236 429 1206 q 327 1266 370 1266 q 256 1235 285 1266 q 228 1162 228 1205 q 257 1091 228 1121 q 327 1061 287 1061 q 399 1090 370 1061 q 429 1163 429 1119 m 55 1266 q -15 1236 15 1266 q -46 1164 -46 1207 q -16 1090 -46 1120 q 55 1061 12 1061 q 126 1091 97 1061 q 155 1163 155 1121 q 126 1236 155 1206 q 55 1266 97 1266 m 300 -1 l 300 900 q 268 977 300 944 q 192 1010 237 1010 q 116 978 149 1010 q 84 900 84 946 l 84 -1 l 300 -1 "},"„":{"x_min":-1,"x_max":621.921875,"ha":642,"o":"m 621 160 l 436 249 l 292 -75 q 283 -118 283 -97 q 311 -190 283 -159 q 381 -221 340 -221 q 435 -205 409 -221 q 473 -161 461 -189 l 621 160 m 337 160 l 151 249 l 7 -75 q -1 -118 -1 -94 q 26 -190 -1 -159 q 95 -221 54 -221 q 149 -204 124 -221 q 187 -161 175 -187 l 337 160 "},"Â":{"x_min":-33,"x_max":889.78125,"ha":887,"o":"m 672 1135 q 659 1178 672 1158 q 623 1208 646 1198 l 455 1275 q 436 1282 447 1277 q 414 1286 425 1286 q 395 1282 405 1286 q 374 1273 384 1277 l 206 1205 q 171 1177 184 1197 q 159 1133 159 1157 q 181 1078 159 1102 q 235 1055 203 1055 q 273 1063 248 1055 q 325 1083 299 1072 q 377 1106 352 1094 q 416 1123 402 1118 q 453 1107 429 1118 q 503 1084 477 1096 q 554 1064 530 1072 q 593 1056 578 1056 q 648 1079 624 1056 q 672 1135 672 1103 m 889 32 l 576 883 q 515 975 555 941 q 412 1008 476 1008 q 312 973 352 1008 q 252 883 273 937 l -20 148 q -29 119 -26 134 q -33 89 -33 104 q 0 13 -33 43 q 74 -16 31 -16 q 109 -7 93 -16 q 135 13 124 0 q 158 39 145 17 q 183 88 171 61 q 205 141 195 116 q 220 180 216 167 l 610 180 l 677 -24 l 889 32 m 546 370 l 281 370 l 414 776 l 546 370 "},"\u0006":{"x_min":0,"x_max":0,"ha":391},"Í":{"x_min":-19,"x_max":356,"ha":348,"o":"m 356 1223 q 333 1278 356 1255 q 279 1301 310 1301 q 264 1299 272 1301 q 247 1294 257 1298 q 203 1280 236 1291 q 132 1254 170 1269 q 64 1225 95 1239 q 30 1206 34 1212 q -5 1177 8 1198 q -19 1132 -19 1156 q 4 1077 -19 1100 q 58 1055 27 1055 q 91 1061 76 1055 q 116 1069 98 1063 q 157 1084 133 1075 q 206 1102 181 1092 q 253 1123 231 1113 q 290 1139 275 1132 q 307 1150 305 1146 q 342 1179 329 1159 q 356 1223 356 1199 m 275 -1 l 275 900 q 243 977 275 944 q 167 1010 212 1010 q 91 978 124 1010 q 59 900 59 946 l 59 -1 l 275 -1 "},"´":{"x_min":4,"x_max":396.59375,"ha":414,"o":"m 310 1052 q 294 1049 306 1052 q 278 1043 283 1046 l 54 953 q 17 923 31 943 q 4 879 4 903 q 27 824 4 846 q 82 802 51 802 q 112 807 97 802 q 150 818 119 808 q 215 841 180 828 q 279 867 250 854 q 315 890 308 881 q 344 907 327 896 q 374 934 360 918 q 393 968 387 950 q 391 1006 400 986 q 355 1041 381 1031 q 310 1052 330 1052 "},"ì":{"x_min":-27,"x_max":348,"ha":333,"o":"m 348 881 q 335 924 348 904 q 299 953 322 943 q 264 973 294 959 q 197 1001 234 986 q 125 1028 159 1016 q 82 1042 91 1041 q 64 1047 72 1046 q 49 1048 56 1048 q -4 1025 18 1048 q -27 970 -27 1003 q -13 926 -27 946 q 23 896 0 906 q 57 877 27 891 q 125 850 87 864 q 196 823 162 835 q 240 810 229 811 q 271 805 256 805 q 325 827 303 805 q 348 881 348 849 m 280 0 l 280 650 q 271 690 280 670 q 249 724 263 709 q 216 747 235 738 q 176 757 198 757 q 101 726 132 757 q 70 650 70 695 l 70 0 l 280 0 "},"±":{"x_min":0,"x_max":0,"ha":391},"Ú":{"x_min":48,"x_max":911,"ha":993,"o":"m 667 1223 q 644 1278 667 1255 q 590 1301 622 1301 q 576 1299 584 1301 q 559 1294 569 1298 q 515 1280 548 1291 q 444 1254 482 1269 q 376 1225 407 1239 q 341 1206 346 1212 q 306 1177 320 1198 q 293 1132 293 1156 q 316 1077 293 1100 q 370 1055 339 1055 q 403 1061 388 1055 q 427 1069 409 1063 q 469 1084 445 1075 q 518 1102 492 1092 q 565 1123 543 1113 q 601 1139 586 1132 q 619 1150 616 1146 q 654 1179 641 1159 q 667 1223 667 1199 m 911 401 l 911 898 q 879 977 911 944 q 802 1011 847 1011 q 726 978 757 1011 q 695 900 695 946 l 695 396 q 636 236 695 296 q 479 177 577 177 q 322 236 381 177 q 264 396 264 296 l 264 1003 l 48 1003 l 48 401 q 80 228 48 304 q 171 98 113 151 q 308 16 229 44 q 479 -12 386 -12 q 651 16 572 -12 q 787 98 729 44 q 878 228 845 151 q 911 401 911 304 "},"|":{"x_min":39,"x_max":181,"ha":227,"o":"m 181 0 l 181 1000 l 39 1000 l 39 0 l 181 0 "},"§":{"x_min":16,"x_max":773,"ha":817,"o":"m 16 380 q 52 240 16 293 q 142 151 88 187 q 261 92 197 116 q 385 41 326 69 q 387 40 385 40 q 446 2 421 21 q 471 -57 471 -16 q 461 -91 471 -78 q 436 -113 451 -105 q 403 -124 422 -121 q 368 -128 385 -128 q 302 -116 328 -128 q 260 -89 277 -105 q 230 -52 242 -72 q 207 -15 219 -32 q 179 11 194 0 q 140 23 164 23 q 69 -7 99 23 q 39 -79 39 -38 q 64 -162 39 -125 q 126 -227 88 -200 q 208 -273 164 -255 q 291 -298 251 -291 q 332 -304 311 -301 q 374 -307 353 -307 q 486 -293 430 -307 q 587 -252 543 -280 q 661 -177 632 -223 q 690 -64 690 -130 q 671 21 690 -19 q 619 92 653 63 q 729 195 685 128 q 773 341 773 262 q 737 461 773 413 q 649 543 702 509 q 533 601 596 577 q 417 648 471 625 q 329 699 364 671 q 294 767 294 727 q 303 802 294 788 q 328 826 313 817 q 361 840 343 836 q 397 845 379 845 q 461 833 430 845 q 521 802 492 821 q 577 760 551 783 q 623 711 602 736 l 736 845 q 583 979 673 936 q 381 1023 494 1023 q 277 1011 329 1023 q 183 972 224 1000 q 104 892 135 940 q 73 777 73 843 q 92 690 73 732 q 144 616 111 647 q 52 513 88 577 q 16 380 16 449 m 554 316 q 530 258 554 281 q 477 222 506 235 q 475 221 476 222 q 473 221 475 221 q 469 217 471 219 q 465 216 468 216 l 317 283 q 282 301 299 291 q 251 323 265 310 q 230 352 238 335 q 222 389 222 369 q 245 454 222 424 q 296 502 269 484 l 464 425 q 526 385 498 410 q 554 316 554 359 "},"Ý":{"x_min":0,"x_max":0,"ha":391},"b":{"x_min":5,"x_max":721,"ha":752,"o":"m 721 378 q 697 520 721 452 q 631 641 674 588 q 527 726 589 694 q 389 758 465 758 q 295 740 341 758 q 215 691 250 723 l 215 1061 l 5 1061 l 5 95 q 32 16 5 47 q 110 -14 60 -14 q 170 15 153 -14 q 191 81 187 45 q 277 9 227 32 q 386 -13 327 -13 q 527 19 465 -13 q 633 107 590 52 q 698 232 676 162 q 721 378 721 303 m 510 371 q 501 301 510 337 q 476 237 493 266 q 429 190 458 208 q 361 172 401 172 q 290 188 319 172 q 242 233 261 205 q 216 298 224 262 q 208 371 208 334 q 216 443 208 407 q 242 506 224 478 q 289 551 261 534 q 359 569 318 569 q 428 551 399 569 q 475 505 456 534 q 501 441 493 477 q 510 371 510 406 "},"q":{"x_min":46,"x_max":763,"ha":838,"o":"m 763 -318 l 763 647 q 734 726 763 695 q 658 757 706 757 q 594 724 613 757 q 576 655 576 692 q 487 729 539 704 q 376 754 434 754 q 239 720 300 754 q 135 632 177 687 q 69 508 92 577 q 46 366 46 438 q 69 223 46 291 q 137 101 93 154 q 243 16 180 48 q 383 -15 305 -15 q 553 55 483 -15 l 553 -318 l 763 -318 m 558 381 q 550 307 558 344 q 526 241 543 270 q 480 193 509 212 q 409 175 451 175 q 341 192 369 175 q 293 237 312 209 q 265 299 274 265 q 256 369 256 334 q 264 440 256 404 q 291 504 273 476 q 338 549 310 531 q 406 568 367 568 q 473 552 444 568 q 521 510 502 536 q 548 450 539 484 q 558 381 558 416 "},"Ö":{"x_min":20,"x_max":969,"ha":1025,"o":"m 774 1022 q 799 963 774 988 q 857 938 824 938 q 915 963 891 938 q 940 1024 940 988 q 915 1084 940 1060 q 855 1109 891 1109 q 797 1083 820 1109 q 774 1021 774 1057 l 774 1022 m 216 1023 q 192 1083 216 1058 q 134 1108 168 1108 q 74 1084 98 1108 q 50 1024 50 1060 q 73 963 50 988 q 133 939 97 939 q 192 963 168 939 q 216 1023 216 988 m 496 1013 q 304 971 391 1013 q 154 859 217 929 q 55 696 90 789 q 20 499 20 603 q 55 303 20 396 q 153 140 90 210 q 303 27 216 69 q 495 -14 390 -14 q 685 27 598 -14 q 836 140 772 69 q 934 303 899 210 q 969 499 969 396 q 934 695 969 602 q 836 858 899 788 q 687 971 774 929 q 496 1013 600 1013 m 750 492 q 733 376 750 432 q 685 276 717 320 q 605 206 653 233 q 492 179 556 179 q 381 207 428 179 q 302 281 333 235 q 255 384 270 327 q 241 499 241 441 q 255 614 241 557 q 302 717 270 671 q 381 791 333 763 q 492 820 428 820 q 608 791 559 820 q 688 716 657 763 q 735 611 720 670 q 750 492 750 552 "},"z":{"x_min":15,"x_max":670,"ha":709,"o":"m 670 94 q 640 161 670 134 q 572 189 611 189 l 318 189 l 626 616 q 640 641 635 627 q 646 669 646 654 q 619 727 646 709 q 557 746 592 746 l 42 746 l 42 557 l 341 557 l 33 133 q 15 77 15 107 q 43 17 15 34 q 108 0 72 0 l 576 0 q 642 27 614 0 q 670 94 670 54 "},"™":{"x_min":34,"x_max":947,"ha":1015,"o":"m 947 508 q 946 520 947 515 q 946 527 946 524 l 875 955 q 854 992 871 977 q 813 1007 837 1007 q 774 993 790 1007 q 751 956 758 980 l 653 620 l 556 956 q 533 993 549 979 q 495 1007 518 1007 q 453 992 471 1007 q 432 954 435 977 l 362 527 l 362 508 l 450 508 l 503 865 l 608 500 l 700 500 l 805 865 l 857 508 l 947 508 m 382 958 q 370 987 382 974 q 341 1000 358 1000 l 74 1000 q 46 988 58 1000 q 34 958 34 976 q 42 932 34 942 q 63 919 51 921 q 83 915 69 915 q 114 915 97 915 q 143 915 130 915 q 163 915 157 915 l 163 509 l 253 509 l 253 915 q 271 915 257 915 q 302 915 285 915 q 332 915 318 915 q 352 919 347 915 q 373 931 364 921 q 382 958 382 941 "},"\u000b":{"x_min":0,"x_max":0,"ha":391},"ã":{"x_min":23,"x_max":741,"ha":793,"o":"m 661 1030 l 648 1030 l 570 1030 q 567 1009 570 1020 q 559 987 564 997 q 546 969 555 976 q 527 963 538 963 q 479 973 504 963 q 426 996 453 983 q 370 1018 398 1008 q 312 1029 341 1029 q 252 1013 277 1029 q 211 971 227 997 q 187 914 195 945 q 180 852 180 883 l 180 836 l 271 836 q 273 857 271 846 q 280 879 275 869 q 293 897 285 890 q 313 904 300 904 q 359 893 333 904 q 413 871 385 883 q 470 848 441 858 q 527 838 499 838 q 589 855 564 838 q 630 902 614 873 q 653 964 646 930 q 661 1030 661 998 m 741 -3 l 741 653 q 722 716 741 690 q 666 743 703 743 q 620 743 644 747 q 568 722 595 740 q 535 686 543 705 q 526 666 526 666 q 502 679 526 666 q 439 705 477 692 q 350 724 400 717 q 251 717 300 730 q 155 668 197 702 q 83 588 112 634 q 38 484 54 541 q 23 369 23 427 q 46 224 23 293 q 114 103 70 155 q 222 19 159 50 q 363 -12 285 -12 q 471 12 422 -12 q 551 90 520 37 q 550 78 550 90 q 550 51 550 66 q 550 20 550 35 q 550 -3 550 5 l 741 -3 m 539 376 q 531 301 539 338 q 505 235 524 265 q 458 186 487 205 q 386 168 428 168 q 317 186 345 168 q 270 233 288 204 q 242 298 251 262 q 234 370 234 334 q 242 441 234 405 q 270 506 251 477 q 319 553 289 535 q 389 572 348 572 q 458 554 430 572 q 505 509 487 537 q 530 447 522 481 q 539 376 539 412 "},"\u0019":{"x_min":-9,"x_max":552,"ha":562,"o":"m 552 955 q 530 1011 552 987 q 478 1035 509 1035 q 439 1023 458 1035 q 413 993 421 1012 l 0 61 q -5 50 -2 58 q -9 39 -9 42 q 5 22 -9 35 q 40 -2 20 10 q 78 -26 60 -16 q 101 -37 95 -37 q 119 -21 108 -37 q 133 1 131 -5 l 543 919 q 552 955 552 936 "},"æ":{"x_min":5,"x_max":1218,"ha":1267,"o":"m 1218 402 q 1214 447 1218 424 q 1204 490 1211 469 q 1156 595 1188 546 q 1082 680 1125 643 q 986 737 1039 716 q 875 758 933 758 q 773 740 823 758 q 684 689 724 722 q 673 716 678 703 q 659 739 667 729 q 638 755 651 749 q 606 762 625 762 q 544 734 564 762 q 525 667 525 707 q 489 707 511 690 q 441 735 467 724 q 388 751 415 746 q 334 756 360 756 q 196 722 256 756 q 92 633 135 689 q 27 508 49 578 q 5 365 5 438 q 28 222 5 291 q 94 102 51 154 q 199 18 138 49 q 338 -13 260 -13 q 445 8 394 -13 q 528 78 496 30 q 529 51 528 72 q 532 15 531 30 q 534 -3 534 0 l 672 -3 l 685 55 q 781 2 729 19 q 891 -14 832 -14 q 996 -4 951 -14 q 1096 24 1042 5 q 1092 54 1095 35 q 1084 93 1088 73 q 1075 131 1080 113 q 1068 160 1071 149 q 1062 171 1067 167 q 1053 178 1057 174 l 1049 183 q 1048 183 1048 183 q 1048 184 1048 184 q 1028 180 1038 183 q 1008 175 1018 177 q 979 171 993 173 q 949 169 964 170 q 930 167 940 167 q 913 167 922 167 q 790 208 842 167 q 722 318 737 249 l 1126 318 q 1150 318 1139 318 q 1173 322 1162 318 q 1207 352 1197 331 q 1218 402 1218 372 m 1003 439 l 729 439 l 724 452 q 735 506 724 480 q 766 551 747 531 q 810 582 785 570 q 864 594 836 594 q 922 580 897 594 q 963 545 946 567 q 990 495 979 523 q 1004 437 1000 466 l 1003 439 m 518 379 q 509 308 518 343 q 483 244 501 272 q 436 198 465 216 q 367 180 407 180 q 298 196 327 180 q 251 240 269 213 q 223 302 232 267 q 215 372 215 336 q 224 442 215 407 q 252 505 234 477 q 298 551 270 533 q 364 570 326 570 q 433 554 405 570 q 481 511 462 538 q 509 450 500 485 q 518 379 518 415 "},"®":{"x_min":39,"x_max":1054,"ha":1132,"o":"m 1054 501 q 1013 702 1054 608 q 905 866 973 796 q 743 978 836 937 q 546 1019 651 1019 q 349 978 441 1019 q 187 866 256 937 q 79 701 119 795 q 39 499 39 606 q 79 298 39 392 q 187 134 119 204 q 349 22 256 63 q 546 -18 441 -18 q 743 22 651 -18 q 905 134 836 63 q 1013 299 973 205 q 1054 501 1054 394 m 546 945 q 714 909 636 945 q 850 813 792 874 q 941 672 908 753 q 975 501 975 591 q 941 329 975 409 q 850 187 908 248 q 714 91 792 126 q 546 56 636 56 q 378 91 456 56 q 242 187 300 126 q 151 329 184 248 q 118 501 118 409 q 151 672 118 591 q 242 813 184 753 q 378 909 300 874 q 546 945 456 945 m 797 247 q 792 257 797 250 q 786 268 788 265 l 633 450 q 735 501 692 461 q 778 612 778 541 q 762 692 778 657 q 719 752 746 728 q 655 789 692 776 q 576 803 618 803 l 368 803 q 360 796 364 803 q 354 782 357 790 q 349 765 350 773 q 348 753 348 757 l 348 257 q 367 208 348 229 q 414 187 387 187 q 461 207 441 187 q 481 254 481 226 l 481 443 l 674 196 q 684 184 677 193 q 697 176 692 176 q 717 185 701 176 q 751 207 734 195 q 782 231 768 219 q 797 247 797 243 m 482 682 l 573 682 q 621 661 600 682 q 643 612 643 640 q 624 562 643 583 q 576 541 606 541 l 482 541 l 482 682 "},"É":{"x_min":18,"x_max":596.0625,"ha":636,"o":"m 475 1222 q 452 1277 475 1254 q 398 1300 430 1300 q 367 1293 381 1300 q 323 1280 356 1291 q 252 1253 289 1268 q 184 1225 215 1239 q 150 1206 154 1211 q 113 1176 127 1196 q 100 1132 100 1156 q 123 1077 100 1100 q 178 1055 147 1055 q 209 1061 192 1055 q 234 1069 216 1063 q 275 1084 251 1075 q 324 1102 299 1092 q 371 1122 349 1113 q 408 1139 393 1132 q 425 1150 423 1146 q 461 1179 447 1158 q 475 1222 475 1199 m 125 0 l 596 0 l 596 194 l 234 194 l 234 404 l 458 404 q 527 431 498 404 q 556 499 556 458 q 529 565 556 540 q 496 587 514 579 q 455 596 477 596 l 234 596 l 234 805 l 483 805 q 550 833 522 805 q 578 902 578 861 q 551 970 578 942 q 484 999 523 999 l 275 999 q 231 999 270 999 q 145 999 193 999 q 60 999 99 999 q 18 999 22 999 l 18 113 q 26 70 18 91 q 48 34 34 49 q 82 9 62 19 q 125 0 102 0 "},"~":{"x_min":37,"x_max":596,"ha":656,"o":"m 596 613 l 582 612 l 490 612 q 487 587 490 601 q 478 561 484 573 q 463 542 472 550 q 441 535 454 535 q 385 546 415 535 q 323 572 355 558 q 257 599 291 587 q 191 612 224 612 q 121 593 151 612 q 74 545 92 574 q 46 479 55 516 q 38 406 38 442 q 37 395 37 404 q 37 386 37 388 l 143 386 q 145 411 143 397 q 154 436 148 424 q 169 456 160 448 q 191 465 178 465 q 246 453 216 465 q 308 427 276 441 q 374 400 340 412 q 440 389 408 389 q 513 410 483 389 q 561 464 542 431 q 587 536 579 497 q 596 613 596 576 "},"³":{"x_min":0,"x_max":0,"ha":391},"¡":{"x_min":38,"x_max":276,"ha":326,"o":"m 53 624 l 53 -22 l 261 -22 l 261 18 l 261 623 q 251 653 261 639 q 225 678 240 667 q 191 694 209 688 q 156 701 172 701 q 123 694 141 701 q 89 678 104 688 q 63 653 73 667 q 53 624 53 639 m 38 875 q 73 788 38 823 q 157 754 108 754 q 242 790 208 754 q 276 876 276 826 q 240 961 276 926 q 156 996 205 996 q 72 960 107 996 q 38 875 38 925 "},"[":{"x_min":18,"x_max":351.40625,"ha":382,"o":"m 283 1108 l 94 1108 q 39 1083 60 1108 q 18 1024 18 1058 l 18 -24 q 39 -83 18 -58 q 93 -108 60 -108 l 331 -108 l 331 77 q 318 79 331 79 q 287 79 305 79 q 255 79 271 79 q 232 79 238 79 l 232 921 l 252 921 q 282 926 266 921 q 312 943 298 932 q 337 968 327 954 q 350 1002 347 983 q 348 1039 353 1020 q 333 1073 343 1057 q 309 1098 323 1088 q 282 1108 295 1107 l 283 1108 "},"L":{"x_min":38,"x_max":567.046875,"ha":628,"o":"m 567 -1 l 567 195 l 254 195 l 254 900 q 222 979 254 946 q 146 1012 191 1012 q 69 979 101 1012 q 38 900 38 946 l 38 62 q 50 28 38 42 q 81 9 63 15 q 115 1 99 3 q 139 -1 131 -1 l 567 -1 "},"\u001d":{"x_min":0,"x_max":0,"ha":391}," ":{"x_min":0,"x_max":0,"ha":391},"%":{"x_min":5,"x_max":859,"ha":894,"o":"m 407 779 q 394 868 407 824 q 355 945 381 911 q 292 1001 329 979 q 208 1023 255 1023 q 121 1000 158 1023 q 58 943 84 978 q 18 863 32 907 q 5 774 5 818 q 18 686 5 729 q 57 608 32 643 q 120 551 82 573 q 205 530 157 530 q 291 552 254 530 q 354 610 329 574 q 393 691 379 646 q 407 779 407 735 m 702 940 q 681 994 702 972 q 629 1016 660 1016 q 591 1006 608 1016 q 565 976 573 996 l 161 72 q 156 61 159 70 q 153 52 153 52 l 276 -24 q 284 -8 276 -24 q 295 13 292 7 l 693 906 q 699 922 696 914 q 702 940 702 931 m 859 224 q 846 311 859 268 q 807 388 833 354 q 745 442 782 421 q 661 463 708 463 q 575 441 613 463 q 511 386 537 420 q 471 308 485 352 q 458 220 458 264 q 470 132 458 175 q 509 53 483 88 q 573 -2 535 19 q 658 -24 610 -24 q 745 -1 707 -24 q 807 55 782 20 q 846 135 833 91 q 859 224 859 179 m 206 876 q 238 866 225 876 q 259 843 251 857 q 271 811 267 828 q 276 778 276 795 q 271 743 276 761 q 259 710 267 725 q 237 684 251 694 q 205 674 224 674 q 172 683 185 674 q 151 708 159 693 q 138 742 142 724 q 134 775 134 760 q 138 809 134 792 q 151 841 142 827 q 173 866 159 856 q 206 876 187 876 m 659 320 q 714 289 697 320 q 732 225 732 258 q 728 188 732 207 q 716 154 725 170 q 693 129 707 139 q 658 120 678 120 q 625 129 638 120 q 603 152 611 138 q 591 185 595 167 q 587 220 587 203 q 591 254 587 236 q 603 285 595 271 q 625 310 611 300 q 659 320 638 320 "},"P":{"x_min":5,"x_max":728,"ha":759,"o":"m 728 665 q 723 720 728 692 q 642 887 707 821 q 485 972 576 953 q 229 999 361 999 l 5 999 l 5 101 q 37 22 5 55 q 115 -11 69 -11 q 163 4 142 -11 q 198 41 183 20 q 214 96 208 55 q 220 184 220 137 q 220 273 220 232 q 220 332 220 315 q 258 332 232 332 q 312 332 284 332 q 368 332 342 332 q 406 336 394 332 q 533 361 474 336 q 636 431 593 387 q 703 533 678 474 q 728 665 728 593 m 223 805 l 375 805 q 429 793 403 805 q 473 764 454 782 q 503 719 492 745 q 514 665 514 694 q 503 610 514 635 q 473 566 492 585 q 429 536 454 547 q 375 525 403 525 l 223 525 l 223 805 "},"À":{"x_min":-33,"x_max":889.5625,"ha":887,"o":"m 601 1133 q 588 1176 601 1157 q 552 1205 575 1195 q 518 1225 547 1211 q 450 1253 488 1239 q 379 1280 413 1268 q 335 1294 345 1291 q 303 1301 320 1301 q 249 1278 271 1301 q 227 1223 227 1255 q 240 1179 227 1200 q 277 1150 254 1159 q 311 1131 281 1144 q 378 1103 341 1118 q 449 1077 416 1088 q 493 1063 482 1065 q 510 1058 503 1059 q 524 1057 518 1057 q 578 1079 556 1057 q 601 1133 601 1101 m 889 32 l 576 883 q 515 975 554 941 q 412 1008 475 1008 q 312 973 352 1008 q 252 883 273 937 l -20 148 q -29 119 -26 134 q -33 89 -33 104 q -1 13 -33 43 q 74 -16 30 -16 q 109 -7 93 -16 q 135 13 124 0 q 158 39 145 17 q 183 88 171 61 q 205 141 195 116 q 220 180 216 167 l 610 180 l 677 -24 l 889 32 m 546 370 l 281 370 l 414 776 l 546 370 "},"_":{"x_min":8,"x_max":499,"ha":526,"o":"m 499 -315 l 499 -266 l 8 -266 l 8 -315 l 499 -315 "},"ñ":{"x_min":57,"x_max":724,"ha":808,"o":"m 724 94 l 724 484 q 702 596 724 546 q 641 681 680 646 q 551 736 602 717 q 441 756 499 756 q 332 732 383 756 q 247 660 280 708 q 222 728 241 697 q 160 759 203 759 q 119 749 138 759 q 86 725 100 740 q 65 690 73 710 q 57 649 57 671 l 57 -2 l 267 -2 l 267 450 q 302 540 267 503 q 389 577 337 577 q 477 539 440 577 q 514 449 514 502 l 514 91 q 544 16 514 46 q 619 -14 575 -14 q 659 -5 640 -14 q 693 17 679 2 q 715 51 707 31 q 724 94 724 72 m 630 1002 l 617 1002 l 539 1002 q 536 980 539 992 q 528 958 533 968 q 515 940 524 947 q 496 934 507 934 q 447 944 473 934 q 394 967 421 954 q 338 990 367 980 q 281 1001 309 1001 q 220 985 245 1001 q 179 943 196 969 q 155 886 163 917 q 148 824 148 855 l 148 808 l 239 808 q 241 829 239 817 q 248 851 243 841 q 261 869 254 862 q 281 876 269 876 q 327 865 301 876 q 381 842 353 855 q 438 819 409 829 q 496 809 468 809 q 558 827 533 809 q 599 873 583 845 q 622 936 615 902 q 630 1002 630 970 "},"+":{"x_min":-4,"x_max":660,"ha":680,"o":"m 316 835 q 256 810 280 835 q 232 749 232 785 l 232 568 l -4 568 l -4 397 l 232 397 l 232 210 q 238 177 232 192 q 256 150 245 162 q 316 126 280 126 q 373 149 350 126 q 399 210 399 173 l 399 395 q 442 395 411 395 q 511 395 475 395 q 577 399 547 395 q 619 411 608 403 q 647 440 635 424 q 660 479 660 456 q 647 516 660 500 q 619 546 635 533 q 577 558 608 554 q 511 563 547 563 q 442 563 475 563 q 399 563 411 563 l 399 749 q 374 809 399 783 q 316 835 350 835 "},"‚":{"x_min":0,"x_max":321.21875,"ha":332,"o":"m 321 134 l 157 226 q 142 195 157 226 q 106 127 126 164 q 70 57 87 89 q 53 20 54 24 q 38 -8 47 10 q 21 -48 29 -28 q 6 -89 12 -69 q 0 -118 0 -108 q 27 -190 0 -159 q 96 -221 55 -221 q 151 -205 125 -221 q 189 -161 176 -189 q 209 -126 194 -158 q 242 -52 224 -94 q 279 33 261 -9 q 308 104 298 77 q 321 134 319 131 "},"½":{"x_min":0,"x_max":0,"ha":391},"Æ":{"x_min":-0.4375,"x_max":1112,"ha":1156,"o":"m 1112 27 q 1112 60 1112 33 q 1107 117 1112 87 q 1096 170 1102 146 q 1085 194 1090 194 l 760 194 l 760 401 l 990 401 q 1057 430 1030 401 q 1085 499 1085 459 q 1057 567 1085 539 q 990 595 1030 595 l 760 595 l 760 807 l 1013 807 q 1060 834 1042 807 q 1078 888 1078 861 q 1072 922 1078 902 q 1058 959 1067 941 q 1036 988 1049 976 q 1009 1000 1023 1000 l 477 1000 q 412 981 433 1000 q 371 922 390 962 l 0 76 l 191 -18 l 284 194 l 548 194 q 550 177 548 196 q 556 133 553 157 q 563 85 560 108 q 568 56 567 62 q 603 16 576 33 q 656 0 630 0 l 1036 0 q 1053 2 1041 0 q 1078 8 1065 4 q 1101 17 1091 12 q 1112 27 1112 22 m 544 369 l 352 369 l 544 805 l 544 369 "},"Ë":{"x_min":11,"x_max":589.046875,"ha":620,"o":"m 517 1163 q 487 1236 517 1206 q 415 1266 457 1266 q 344 1235 373 1266 q 316 1162 316 1205 q 345 1091 316 1121 q 415 1061 374 1061 q 487 1090 457 1061 q 517 1163 517 1119 m 144 1266 q 72 1236 102 1266 q 43 1164 43 1207 q 71 1090 43 1120 q 143 1061 100 1061 q 214 1091 185 1061 q 244 1163 244 1121 q 214 1236 244 1206 q 144 1266 185 1266 m 118 0 l 589 0 l 589 194 l 227 194 l 227 404 l 451 404 q 520 431 491 404 q 549 499 549 458 q 522 565 549 540 q 489 587 507 579 q 449 596 470 596 l 227 596 l 227 805 l 476 805 q 543 833 515 805 q 571 902 571 861 q 544 970 571 942 q 477 999 516 999 l 268 999 q 224 999 263 999 q 138 999 186 999 q 53 999 92 999 q 11 999 15 999 l 11 113 q 19 70 11 91 q 41 34 27 49 q 75 9 55 19 q 118 0 95 0 "},"'":{"x_min":38.109375,"x_max":208.25,"ha":256,"o":"m 208 1000 l 66 1000 l 38 668 l 166 668 l 208 1000 "},"ª":{"x_min":38,"x_max":506,"ha":563,"o":"m 489 507 l 489 959 q 471 998 489 982 q 431 1015 454 1015 q 393 997 404 1015 q 382 953 382 980 q 324 999 358 984 q 251 1015 290 1015 q 160 992 200 1015 q 93 933 121 970 q 52 851 66 897 q 38 758 38 805 q 52 665 38 711 q 93 583 66 619 q 160 524 121 546 q 250 502 200 502 q 292 512 269 502 q 335 535 315 522 q 369 559 355 548 q 384 569 382 569 l 384 507 l 489 507 m 506 394 q 493 430 506 415 q 459 446 480 446 l 75 446 l 75 346 l 459 346 q 492 361 478 346 q 506 395 506 376 l 506 394 m 381 760 q 375 704 381 733 q 356 651 369 675 q 320 613 343 628 q 265 599 298 599 q 211 613 234 599 q 173 650 188 628 q 152 702 159 673 q 146 758 146 730 q 152 813 146 785 q 174 864 159 841 q 212 901 189 886 q 267 916 235 916 q 321 902 299 916 q 356 866 343 888 q 375 816 369 844 q 381 760 381 788 "},"ð":{"x_min":0,"x_max":0,"ha":391},"T":{"x_min":-1,"x_max":678,"ha":701,"o":"m 678 901 q 650 970 678 941 q 582 1000 623 1000 l -1 1000 l -1 807 l 215 807 l 215 98 q 246 21 215 54 q 322 -11 278 -11 q 398 20 367 -11 q 430 98 430 52 l 430 807 l 582 807 q 649 834 620 807 q 678 901 678 861 "},"Þ":{"x_min":0,"x_max":0,"ha":391},"j":{"x_min":60,"x_max":270,"ha":344,"o":"m 159 1014 q 105 991 127 1014 q 83 936 83 968 q 106 879 83 902 q 160 857 129 857 q 214 879 192 857 q 237 936 237 902 q 213 991 237 968 q 159 1014 190 1014 m 270 -249 l 270 707 l 60 707 l 60 -254 q 90 -304 60 -286 q 156 -323 121 -323 q 196 -318 175 -323 q 233 -303 216 -313 q 259 -280 249 -293 q 270 -249 270 -266 "},"1":{"x_min":47.5625,"x_max":465,"ha":532,"o":"m 465 0 l 465 893 q 437 969 465 938 q 363 1000 410 1000 l 142 1000 q 75 972 103 1000 q 47 904 47 944 q 76 835 47 863 q 144 807 104 807 l 249 807 l 249 0 l 465 0 "},"›":{"x_min":27,"x_max":328,"ha":370,"o":"m 112 677 q 53 652 78 677 q 28 593 28 628 q 36 557 28 574 q 55 525 44 540 l 171 367 l 53 209 q 35 178 43 194 q 27 142 27 162 q 50 82 27 107 q 108 58 74 58 q 152 71 131 58 q 187 103 173 84 l 326 300 q 328 318 328 302 q 328 355 328 335 q 328 391 328 374 q 328 410 328 407 q 317 433 328 417 q 304 453 307 449 l 186 635 q 155 665 175 654 q 112 677 135 677 "},"ä":{"x_min":30,"x_max":748,"ha":805,"o":"m 549 1020 q 477 988 506 1020 q 449 914 449 957 q 479 842 449 872 q 551 813 510 813 q 622 843 593 813 q 652 917 652 874 q 622 990 652 960 q 549 1020 592 1020 m 280 1020 q 207 989 237 1020 q 178 915 178 958 q 207 842 178 872 q 280 813 237 813 q 351 842 322 813 q 381 915 381 872 q 351 989 381 958 q 280 1020 322 1020 m 748 -3 l 748 653 q 729 716 748 690 q 673 743 710 743 q 627 743 652 747 q 576 722 603 740 q 541 686 548 705 q 533 666 533 666 q 509 679 533 666 q 445 705 484 692 q 357 724 406 717 q 258 717 307 730 q 162 668 204 702 q 90 588 119 634 q 45 484 61 541 q 30 369 30 427 q 53 224 30 293 q 121 103 77 155 q 229 19 166 50 q 370 -12 292 -12 q 477 12 428 -12 q 558 90 526 37 q 557 78 557 90 q 557 51 557 66 q 557 20 557 35 q 557 -3 557 5 l 748 -3 m 546 376 q 538 301 546 338 q 512 235 531 265 q 465 186 494 205 q 393 168 435 168 q 324 186 352 168 q 277 233 295 204 q 249 298 258 262 q 241 370 241 334 q 249 441 241 405 q 277 506 258 477 q 326 553 296 535 q 396 572 355 572 q 465 554 437 572 q 512 509 494 537 q 537 447 529 481 q 546 376 546 412 "},"¹":{"x_min":0,"x_max":0,"ha":391},"<":{"x_min":33.609375,"x_max":608,"ha":664,"o":"m 608 173 l 608 335 l 301 499 l 608 664 l 608 827 l 33 499 l 608 173 "},"£":{"x_min":8,"x_max":833.46875,"ha":870,"o":"m 468 1021 q 343 1003 404 1021 q 236 950 283 986 q 160 861 189 915 q 132 735 132 808 q 142 662 132 696 q 168 593 152 628 q 143 593 160 593 q 108 589 126 593 q 74 582 89 586 q 54 572 59 577 q 21 544 35 563 q 8 496 8 524 q 19 455 8 473 q 47 429 31 438 q 69 418 52 422 q 108 408 86 413 q 148 402 129 404 q 177 402 167 400 q 199 402 186 399 q 212 404 212 404 q 202 374 212 404 q 179 303 193 343 q 147 224 164 263 q 116 168 130 186 l 115 166 q 92 129 100 147 q 84 95 84 111 q 90 61 84 79 q 109 30 97 44 q 136 8 120 16 q 169 0 152 0 l 168 0 l 815 0 l 815 193 l 363 193 q 407 267 389 223 q 426 352 426 310 q 426 377 426 366 q 424 402 426 389 l 599 402 l 599 594 l 393 594 q 366 652 380 621 q 353 713 353 682 q 363 761 353 741 q 393 795 374 781 q 434 815 411 809 q 482 822 457 822 q 581 795 539 822 q 662 730 624 769 q 682 707 672 719 q 703 689 692 696 q 744 676 718 676 q 808 707 784 676 q 833 776 833 738 q 812 839 833 810 q 762 890 792 867 q 700 931 733 913 q 642 963 666 950 q 558 1003 601 986 q 468 1021 515 1021 "},"t":{"x_min":-7,"x_max":461,"ha":472,"o":"m 461 655 q 448 701 461 684 q 417 729 436 719 q 375 743 398 739 q 331 746 352 746 l 331 860 q 300 938 331 905 q 225 972 269 972 q 151 939 182 972 q 121 862 121 906 l 121 745 q 76 741 99 745 q 35 728 54 738 q 5 701 17 718 q -7 656 -7 683 q 5 611 -7 628 q 36 584 17 593 q 78 570 55 574 q 122 566 100 566 l 122 0 l 330 0 l 330 565 q 375 568 352 565 q 417 582 398 571 q 448 610 436 592 q 461 655 461 627 "},"¬":{"x_min":39.015625,"x_max":752,"ha":820,"o":"m 752 300 l 752 644 l 39 644 l 39 500 l 642 500 l 642 300 l 752 300 "},"ù":{"x_min":22,"x_max":688,"ha":734,"o":"m 539 881 q 526 924 539 904 q 491 953 513 945 q 457 972 487 958 q 390 1001 427 986 q 318 1027 352 1015 q 274 1042 285 1039 q 241 1047 259 1047 q 187 1025 210 1047 q 165 970 165 1003 q 178 926 165 946 q 215 896 192 906 q 250 877 219 890 q 318 850 280 864 q 388 823 355 835 q 433 810 422 811 q 464 805 448 805 q 517 827 495 805 q 539 881 539 849 m 688 305 l 688 648 q 657 723 688 692 q 583 755 626 755 q 542 746 561 755 q 508 723 523 738 q 486 688 494 709 q 478 646 478 668 l 478 307 q 448 209 478 245 q 355 173 418 173 q 261 209 291 173 q 232 307 232 246 l 232 735 l 80 735 l 22 735 l 22 305 q 110 63 22 141 q 355 -14 199 -14 q 600 63 512 -14 q 688 306 688 141 l 688 305 "},"W":{"x_min":-19.984375,"x_max":1220,"ha":1243,"o":"m 1220 899 q 1187 979 1220 947 q 1109 1011 1154 1011 q 1038 982 1066 1011 q 1003 913 1011 953 l 879 305 l 706 926 l 509 926 l 336 305 l 192 1009 l -19 973 l 165 112 q 214 21 177 54 q 313 -12 252 -12 q 401 17 363 -12 q 455 96 440 46 l 608 634 l 762 96 q 815 17 777 47 q 904 -12 853 -12 q 1002 21 965 -12 q 1052 114 1040 55 l 1217 877 q 1220 899 1220 891 "},"ï":{"x_min":-8,"x_max":467,"ha":477,"o":"m 467 909 q 437 983 467 953 q 365 1013 407 1013 q 294 982 323 1013 q 266 909 266 952 q 295 837 266 867 q 365 808 324 808 q 437 837 407 808 q 467 909 467 866 m 93 1013 q 21 983 51 1013 q -8 911 -8 954 q 20 837 -8 867 q 92 808 49 808 q 163 837 134 808 q 193 910 193 867 q 163 982 193 952 q 93 1013 134 1013 m 346 0 l 346 650 q 337 690 346 670 q 315 724 329 709 q 282 747 301 738 q 242 757 264 757 q 167 726 198 757 q 136 650 136 695 l 136 0 l 346 0 "},">":{"x_min":12,"x_max":586.390625,"ha":619,"o":"m 586 499 l 12 827 l 12 663 l 318 499 l 12 334 l 12 172 l 586 499 "},"v":{"x_min":-23.109375,"x_max":652,"ha":651,"o":"m 652 649 q 621 723 652 692 q 547 755 590 755 q 485 735 513 755 q 446 682 457 716 l 322 298 l 156 752 l -23 670 l 220 66 q 260 10 235 30 q 325 -10 284 -10 q 386 12 362 -10 q 424 67 411 35 q 445 104 430 71 q 481 185 461 137 q 525 290 502 232 q 569 401 548 348 q 606 498 590 455 q 628 564 622 542 q 652 649 652 620 "},"û":{"x_min":42,"x_max":708,"ha":776,"o":"m 630 881 q 616 925 630 906 q 581 954 602 945 l 415 1021 q 394 1028 404 1025 q 374 1032 385 1032 q 353 1028 363 1032 q 333 1021 343 1025 l 164 952 q 130 924 142 943 q 118 881 118 904 q 139 825 118 849 q 193 802 161 802 q 231 811 206 802 q 284 831 257 820 q 336 854 311 842 q 374 871 360 866 q 411 853 387 864 q 462 831 435 842 q 513 812 488 820 q 552 804 537 804 q 606 826 583 804 q 630 881 630 849 m 708 305 l 708 648 q 677 723 708 692 q 602 755 646 755 q 562 746 581 755 q 528 723 542 738 q 506 688 514 709 q 498 646 498 668 l 498 307 q 468 209 498 245 q 375 173 438 173 q 281 209 311 173 q 252 307 252 246 l 252 735 l 100 735 l 42 735 l 42 305 q 130 63 42 141 q 375 -14 219 -14 q 620 63 532 -14 q 708 306 708 141 l 708 305 "},"Ò":{"x_min":8,"x_max":957,"ha":999,"o":"m 668 1134 q 655 1177 668 1157 q 619 1206 642 1196 q 585 1225 614 1211 q 517 1254 555 1239 q 446 1280 480 1268 q 402 1295 412 1292 q 370 1302 387 1302 q 316 1279 338 1302 q 294 1224 294 1256 q 307 1180 294 1200 q 344 1150 321 1160 q 378 1132 348 1145 q 445 1104 408 1119 q 516 1078 483 1089 q 560 1064 549 1066 q 577 1059 570 1060 q 591 1058 585 1058 q 645 1080 623 1058 q 668 1134 668 1102 m 484 1013 q 292 971 379 1013 q 142 859 205 929 q 43 696 78 789 q 8 499 8 603 q 43 303 8 396 q 141 140 78 210 q 291 27 204 69 q 483 -14 378 -14 q 673 27 586 -14 q 824 140 760 69 q 922 303 887 210 q 957 499 957 396 q 922 695 957 602 q 824 858 887 788 q 675 971 762 929 q 484 1013 588 1013 m 738 492 q 721 376 738 432 q 673 276 705 320 q 593 206 641 233 q 480 179 544 179 q 369 207 416 179 q 290 281 321 235 q 243 384 258 327 q 229 499 229 441 q 243 614 229 557 q 290 717 258 671 q 369 791 321 763 q 480 820 416 820 q 596 791 547 820 q 676 716 645 763 q 723 611 708 670 q 738 492 738 552 "},"\n":{"x_min":37.171875,"x_max":554.109375,"ha":611,"o":"m 502 765 l 422 681 q 297 723 366 723 q 169 680 226 723 l 87 763 q 62 737 73 751 q 39 707 50 723 l 117 630 q 78 500 78 573 q 117 371 78 431 l 37 292 q 87 238 61 260 l 171 318 q 297 276 225 276 q 422 318 365 276 l 501 237 q 528 262 514 249 q 552 291 541 275 l 473 370 q 516 500 516 428 q 475 633 516 574 l 554 707 q 529 738 543 723 q 501 765 516 753 l 502 765 m 441 499 q 399 394 441 436 q 297 352 358 352 q 240 363 267 352 q 194 395 214 375 q 163 442 175 416 q 152 499 152 468 q 163 556 152 530 q 194 603 175 582 q 240 635 214 623 q 297 647 267 647 q 399 604 358 647 q 441 499 441 562 "},"&":{"x_min":15,"x_max":919.625,"ha":968,"o":"m 754 233 l 837 333 q 855 355 842 339 q 882 387 868 371 q 906 416 895 403 q 916 428 916 428 l 814 538 l 818 530 q 795 517 810 530 q 767 489 781 505 q 740 457 753 473 q 724 437 728 442 q 713 422 721 431 q 695 404 705 413 q 678 386 686 395 q 665 371 670 377 l 490 545 q 508 554 490 545 q 548 578 525 563 q 596 615 571 593 q 634 664 620 638 q 670 779 670 725 q 648 894 670 833 q 556 988 622 957 q 416 1020 491 1020 q 313 1006 364 1020 q 219 963 261 992 q 151 889 178 933 q 125 785 125 845 q 150 687 125 732 q 208 603 175 642 q 132 547 167 579 q 71 477 97 516 q 29 393 44 438 q 15 300 15 349 q 44 163 15 223 q 125 62 74 103 q 241 0 175 22 q 375 -21 306 -21 q 527 13 458 -21 q 656 98 596 47 q 683 71 661 92 q 729 25 705 49 q 776 -19 754 1 q 806 -45 799 -40 q 861 -55 829 -64 q 910 -19 893 -47 q 919 16 921 -2 q 906 53 916 35 q 885 85 897 70 q 866 106 874 99 l 754 233 m 508 780 q 499 748 508 764 q 478 719 491 732 q 450 695 465 706 q 423 676 435 685 q 401 699 414 686 q 377 724 388 711 q 358 753 366 737 q 350 785 350 768 q 375 835 350 818 q 429 853 400 853 q 483 832 458 853 q 508 780 508 812 m 525 242 q 458 190 498 212 q 377 168 419 168 q 321 179 348 168 q 274 210 295 191 q 242 257 254 230 q 230 313 230 284 q 261 402 230 362 q 335 463 292 442 l 525 242 "},"Ð":{"x_min":0,"x_max":0,"ha":391},"I":{"x_min":30,"x_max":246,"ha":285,"o":"m 132 1208 q 78 1185 100 1208 q 56 1130 56 1162 q 79 1073 56 1096 q 133 1051 102 1051 q 187 1073 165 1051 q 210 1130 210 1096 q 186 1185 210 1162 q 132 1208 163 1208 m 246 -1 l 246 900 q 214 977 246 944 q 138 1010 183 1010 q 62 978 95 1010 q 30 900 30 946 l 30 -1 l 246 -1 "},"G":{"x_min":14,"x_max":955,"ha":1003,"o":"m 955 452 q 929 554 955 518 q 835 591 904 591 l 603 591 q 536 562 565 591 q 507 493 507 534 q 535 423 507 451 q 605 395 564 395 l 731 395 q 707 313 724 351 q 661 244 689 274 q 594 197 633 214 q 508 180 555 180 q 388 205 439 180 q 300 275 336 231 q 247 376 265 318 q 230 499 230 433 q 247 619 230 561 q 300 722 265 678 q 385 793 334 766 q 502 821 435 821 q 570 813 539 821 q 629 793 600 805 q 685 764 658 780 q 741 730 712 748 l 827 905 q 679 982 757 954 q 516 1011 600 1011 q 314 972 407 1011 q 155 863 222 933 q 51 699 88 794 q 14 493 14 604 q 51 287 14 380 q 155 128 88 194 q 314 24 222 61 q 516 -12 406 -12 q 698 23 617 -12 q 836 120 779 58 q 924 267 893 182 q 955 452 955 352 "},"`":{"x_min":0,"x_max":0,"ha":391},"·":{"x_min":39,"x_max":279,"ha":331,"o":"m 279 371 q 243 458 279 423 q 159 494 208 494 q 74 458 109 494 q 39 371 39 423 q 48 324 39 346 q 75 286 58 302 q 114 260 92 270 q 160 251 135 251 q 206 260 184 251 q 243 287 227 270 q 269 325 259 303 q 279 371 279 346 "},"r":{"x_min":15,"x_max":460.484375,"ha":490,"o":"m 460 652 q 438 711 460 686 q 384 741 415 736 q 327 730 357 743 q 274 700 297 716 q 219 655 245 681 q 179 614 193 630 q 165 595 166 598 q 145 643 156 618 q 118 685 133 667 q 85 709 103 703 q 49 702 68 716 q 24 679 34 691 q 15 648 15 667 l 15 -3 l 225 -3 l 225 334 q 227 394 225 366 q 242 446 230 423 q 279 494 257 475 q 325 526 301 513 q 374 549 350 539 q 416 572 397 559 q 448 604 435 585 q 460 652 460 623 "},"¿":{"x_min":3,"x_max":635.5,"ha":660,"o":"m 3 258 q 30 135 3 187 q 105 48 58 83 q 210 -4 151 12 q 332 -22 269 -22 q 395 -16 362 -22 q 461 0 428 -10 q 523 30 494 12 q 578 73 553 48 q 619 130 602 98 q 635 198 635 162 q 613 264 635 236 q 551 293 590 293 q 510 279 524 293 q 482 249 495 265 q 481 247 481 249 q 481 247 481 247 q 414 189 452 211 q 328 168 375 168 q 251 192 284 168 q 219 265 219 216 q 234 317 219 298 q 273 347 250 336 q 324 367 296 359 q 375 386 352 374 q 414 416 398 398 q 430 466 430 434 l 430 728 l 374 728 l 223 728 l 223 515 q 136 483 177 505 q 65 427 95 460 q 19 351 35 394 q 3 258 3 308 m 328 783 q 413 818 379 783 q 447 905 447 853 q 437 951 447 930 q 411 989 427 973 q 374 1015 395 1005 q 328 1025 353 1025 q 244 989 279 1025 q 209 904 209 954 q 244 817 209 852 q 328 783 279 783 "},"ý":{"x_min":0,"x_max":0,"ha":391},"x":{"x_min":29,"x_max":746,"ha":803,"o":"m 746 95 q 737 136 746 116 q 715 170 729 155 l 520 393 l 682 573 q 706 609 697 588 q 715 651 715 629 q 685 726 715 695 q 611 757 655 757 q 561 744 584 757 q 524 709 539 732 l 388 520 l 192 762 l 42 633 l 254 391 l 60 170 q 37 136 46 155 q 29 95 29 116 q 37 55 29 75 q 59 21 45 36 q 92 -1 73 7 q 132 -11 112 -11 q 183 2 159 -11 q 223 39 207 16 l 388 263 l 553 39 q 592 2 569 16 q 642 -11 615 -11 q 715 20 684 -11 q 746 95 746 52 "},"è":{"x_min":-0.890625,"x_max":718,"ha":741,"o":"m 539 882 q 526 926 539 905 q 491 954 513 946 q 457 974 487 960 q 390 1002 427 987 q 318 1028 352 1017 q 273 1043 284 1040 q 241 1049 258 1049 q 187 1026 209 1049 q 165 971 165 1004 q 178 927 165 947 q 215 897 192 907 q 250 878 219 892 q 318 851 280 865 q 389 824 355 836 q 433 811 422 812 q 464 806 448 806 q 517 828 495 806 q 539 882 539 850 m 718 400 q 689 537 718 472 q 613 650 660 601 q 501 727 565 699 q 368 756 437 756 q 221 726 289 756 q 104 644 154 696 q 27 524 54 593 q 0 374 0 454 q 29 215 0 286 q 112 94 58 144 q 236 15 165 43 q 390 -12 307 -12 q 489 -2 442 -12 q 584 25 536 6 l 555 189 q 481 173 518 181 q 407 166 443 166 q 287 206 337 166 q 222 313 237 246 l 619 313 q 692 330 667 313 q 718 400 718 347 m 498 434 l 222 434 q 236 492 226 464 q 263 543 246 521 q 305 578 280 565 q 365 592 331 592 q 421 578 396 592 q 462 542 445 564 q 489 491 479 519 q 500 434 500 463 l 498 434 "},"º":{"x_min":35,"x_max":489,"ha":545,"o":"m 263 1017 q 169 995 211 1017 q 97 938 127 973 q 51 856 67 902 q 35 759 35 809 q 50 662 35 709 q 96 578 66 614 q 167 519 126 541 q 262 498 208 498 q 355 519 313 498 q 427 577 397 541 q 472 660 456 613 q 489 756 489 706 q 473 853 489 806 q 428 936 457 900 q 357 995 399 973 q 263 1017 315 1017 m 464 446 l 86 446 q 61 428 73 446 q 50 395 50 411 q 61 363 50 380 q 88 346 73 346 l 441 346 q 464 350 448 346 q 481 362 481 355 q 479 380 481 366 q 475 407 478 393 q 470 434 472 422 q 463 446 467 446 l 464 446 m 145 761 q 151 815 145 787 q 172 865 158 843 q 209 902 187 887 q 262 917 232 917 q 315 901 293 917 q 352 862 338 886 q 372 810 366 839 q 379 754 379 782 q 372 698 379 726 q 351 647 365 670 q 314 610 336 624 q 260 597 291 597 q 206 612 229 597 q 170 651 184 627 q 151 704 157 676 q 145 761 145 733 "},"Ø":{"x_min":18.84375,"x_max":988,"ha":1041,"o":"m 988 980 q 976 1007 988 995 q 948 1019 964 1019 q 917 1003 936 1019 q 878 965 897 987 q 840 922 858 944 q 813 891 823 901 q 667 983 748 951 q 499 1015 587 1015 q 307 972 394 1015 q 158 859 220 930 q 61 694 96 788 q 27 498 27 601 q 55 320 27 405 q 143 162 84 234 l 18 24 l 74 -32 l 197 104 q 335 15 258 45 q 497 -14 413 -14 q 688 26 601 -14 q 838 137 775 67 q 937 298 901 206 q 974 493 974 391 q 946 671 974 584 q 869 834 919 758 q 897 863 877 844 q 937 904 916 882 q 972 946 957 925 q 988 980 988 967 m 674 745 l 288 315 q 255 402 265 358 q 246 495 246 447 q 260 611 246 553 q 306 715 275 669 q 384 790 337 762 q 496 819 432 819 q 676 745 599 819 l 674 745 m 755 494 q 738 380 755 437 q 690 280 722 324 q 611 209 658 236 q 501 182 564 182 q 412 198 454 182 q 337 251 369 215 l 719 677 q 746 586 738 632 q 755 494 755 541 "},"÷":{"x_min":0,"x_max":0,"ha":391},"\u001f":{"x_min":0,"x_max":0,"ha":391},"h":{"x_min":7,"x_max":674,"ha":705,"o":"m 674 92 l 674 484 q 654 594 674 544 q 599 680 634 644 q 514 736 563 716 q 407 757 465 757 q 305 738 355 757 q 217 684 255 719 l 217 979 q 187 1054 217 1023 q 113 1085 157 1085 q 72 1076 91 1085 q 39 1053 53 1068 q 15 1019 24 1039 q 7 978 7 1000 l 7 -1 l 217 -1 l 217 453 q 252 541 217 505 q 340 578 288 578 q 388 567 366 578 q 428 539 411 557 q 454 499 445 522 q 464 450 464 476 l 464 92 q 493 16 464 48 q 566 -16 522 -16 q 642 15 611 -16 q 674 92 674 46 "},"\u0005":{"x_min":7,"x_max":528,"ha":555,"o":"m 528 945 q 510 1002 528 977 q 459 1027 492 1027 q 447 1025 454 1027 q 434 1018 440 1024 q 363 978 402 996 q 273 961 323 961 q 202 971 234 961 q 145 994 170 981 q 103 1018 121 1007 q 73 1029 85 1029 q 25 1001 43 1029 q 7 946 7 974 q 35 880 7 908 q 104 835 64 852 q 189 809 145 817 q 264 801 234 801 q 338 809 294 801 q 425 834 383 817 q 498 879 468 852 q 528 945 528 906 "},"\b":{"x_min":10,"x_max":297,"ha":319,"o":"m 297 934 q 284 987 297 963 q 252 1028 272 1012 q 205 1055 231 1045 q 152 1065 180 1065 q 99 1055 125 1065 q 54 1029 73 1046 q 22 987 34 1012 q 10 934 10 963 q 22 881 10 905 q 54 839 34 856 q 101 813 75 822 q 154 804 126 804 q 207 813 181 804 q 252 840 233 823 q 284 881 272 856 q 297 934 297 905 m 196 933 q 183 903 196 916 q 155 890 171 890 q 122 901 136 890 q 109 934 109 913 q 122 966 109 953 q 153 979 136 979 q 183 965 171 979 q 196 933 196 951 "},".":{"x_min":-8,"x_max":232,"ha":311,"o":"m 232 99 q 196 184 232 149 q 112 220 161 220 q 27 184 62 220 q -8 99 -8 149 q 1 51 -8 73 q 28 13 11 29 q 67 -12 45 -2 q 113 -22 88 -22 q 159 -12 137 -22 q 196 13 180 -2 q 222 51 212 29 q 232 99 232 73 "},";":{"x_min":-8,"x_max":325.890625,"ha":330,"o":"m 196 688 q 110 652 145 688 q 75 566 75 617 q 111 478 75 513 q 197 444 147 444 q 243 453 222 444 q 280 480 264 463 q 305 518 295 496 q 315 566 315 541 q 280 651 315 615 q 196 688 245 688 m 325 139 l 139 228 l 1 -75 q -8 -118 -8 -97 q 19 -190 -8 -159 q 90 -221 47 -221 q 144 -204 118 -221 q 182 -161 170 -187 l 325 139 "},"f":{"x_min":-26,"x_max":461,"ha":450,"o":"m 461 981 q 449 1025 461 1006 q 419 1057 437 1044 q 378 1075 401 1069 q 333 1081 355 1081 l 274 1081 q 162 1038 202 1081 q 113 933 122 995 q 105 895 105 922 q 105 839 105 869 q 105 783 105 809 q 105 745 105 757 q 57 741 80 745 q 16 728 35 738 q -13 700 -1 718 q -26 656 -26 682 q -15 612 -26 631 q 12 581 -4 593 q 51 564 29 570 q 93 559 73 559 q 97 558 95 557 q 100 559 99 559 l 100 -313 l 309 -313 l 309 559 q 355 562 330 559 q 400 576 379 566 q 434 605 420 587 q 448 650 448 623 q 434 697 448 679 q 400 726 420 715 q 355 741 379 737 q 309 746 330 746 l 309 853 q 321 878 309 869 q 349 889 334 886 q 425 911 390 889 q 461 981 461 933 "},"“":{"x_min":-0.921875,"x_max":622,"ha":641,"o":"m 0 701 l 184 612 l 328 935 q 338 980 338 959 q 310 1052 338 1021 q 240 1083 282 1083 q 185 1066 211 1083 q 148 1023 159 1049 l 0 701 m 283 701 l 469 612 l 613 935 q 622 980 622 956 q 594 1052 622 1021 q 525 1083 567 1083 q 470 1066 496 1083 q 433 1023 443 1049 l 283 701 "},"A":{"x_min":-33,"x_max":889.84375,"ha":887,"o":"m 889 32 l 576 883 q 515 975 555 941 q 412 1008 476 1008 q 312 973 352 1008 q 252 883 273 937 l -20 148 q -29 119 -26 134 q -33 89 -33 104 q -1 13 -33 43 q 74 -16 30 -16 q 109 -7 93 -16 q 135 13 124 0 q 158 39 145 17 q 183 88 171 61 q 205 141 195 116 q 220 180 216 167 l 610 180 l 677 -24 l 889 32 m 546 370 l 281 370 l 414 776 l 546 370 "},"6":{"x_min":35,"x_max":720,"ha":781,"o":"m 720 337 q 702 448 720 396 q 654 542 685 501 q 576 609 623 583 q 470 641 529 636 q 412 641 440 644 q 357 629 384 637 q 396 699 373 661 q 446 778 418 737 q 506 861 474 819 q 571 941 538 902 q 542 955 568 943 q 487 984 516 968 q 431 1013 457 999 q 405 1029 406 1026 q 337 941 371 984 q 269 854 303 898 q 231 805 250 830 q 196 757 213 780 q 135 661 164 711 q 83 560 105 612 q 47 452 60 508 q 35 340 35 397 q 60 197 35 262 q 131 84 85 132 q 241 11 178 37 q 380 -15 304 -15 q 517 12 454 -15 q 624 86 579 39 q 694 198 669 133 q 720 337 720 262 m 373 184 q 320 197 343 184 q 282 231 297 210 q 258 278 266 251 q 250 333 250 306 q 258 387 250 361 q 282 434 266 414 q 320 466 297 454 q 373 478 343 478 q 427 465 403 478 q 467 432 451 453 q 493 384 484 411 q 502 328 502 357 q 493 273 502 299 q 467 227 484 247 q 427 195 451 207 q 373 184 403 184 "},"‘":{"x_min":-1.21875,"x_max":320,"ha":329,"o":"m -1 714 l 185 625 l 310 915 q 320 960 320 935 q 292 1032 320 1001 q 223 1063 264 1063 q 168 1046 194 1063 q 130 1001 143 1029 l -1 714 "},"O":{"x_min":26,"x_max":975,"ha":1036,"o":"m 502 1013 q 310 971 397 1013 q 160 859 223 929 q 61 696 96 789 q 26 499 26 603 q 61 303 26 396 q 159 140 96 210 q 309 27 222 69 q 501 -14 396 -14 q 691 27 604 -14 q 842 140 778 69 q 940 303 905 210 q 975 499 975 396 q 940 695 975 602 q 842 858 905 788 q 693 971 780 929 q 502 1013 606 1013 m 756 492 q 739 376 756 432 q 691 276 723 320 q 611 206 659 233 q 498 179 562 179 q 387 207 434 179 q 308 281 339 235 q 261 384 276 327 q 247 499 247 441 q 261 614 247 557 q 308 717 276 671 q 387 791 339 763 q 498 820 434 820 q 614 791 565 820 q 694 716 663 763 q 741 611 726 670 q 756 492 756 552 "},"n":{"x_min":44,"x_max":711,"ha":783,"o":"m 711 94 l 711 484 q 689 597 711 547 q 628 682 667 647 q 538 737 589 718 q 428 757 486 757 q 319 733 370 757 q 234 661 267 709 q 210 728 229 698 q 147 759 191 759 q 106 749 125 759 q 73 725 87 740 q 52 691 60 710 q 44 649 44 671 l 44 0 l 254 0 l 254 451 q 289 541 254 504 q 376 578 324 578 q 464 540 427 578 q 501 450 501 502 l 501 91 q 531 16 501 47 q 606 -14 562 -14 q 646 -5 627 -14 q 680 17 666 2 q 702 51 694 31 q 711 94 711 72 "},"3":{"x_min":43.5,"x_max":728,"ha":799,"o":"m 728 309 q 686 449 728 389 q 573 545 644 510 q 647 636 621 581 q 673 752 673 692 q 649 860 673 811 q 585 942 625 909 q 494 993 546 975 q 387 1012 442 1012 q 213 968 286 1012 q 79 856 140 924 q 80 854 79 856 q 82 852 82 853 q 86 847 83 852 q 94 836 90 842 q 101 825 98 831 q 106 820 105 820 q 120 802 107 818 q 145 765 132 785 q 171 729 159 745 q 184 713 182 713 l 185 711 q 219 745 194 727 q 272 780 243 764 q 328 807 301 797 q 375 818 356 818 q 440 790 413 818 q 467 724 467 763 q 461 701 467 711 q 452 683 456 690 q 394 638 428 653 q 330 609 360 622 q 280 578 299 596 q 269 525 261 560 q 269 516 267 522 q 273 507 271 510 q 290 472 277 483 q 317 452 302 461 q 380 422 347 432 q 442 398 413 411 q 489 364 470 385 q 509 305 509 343 q 470 215 509 248 q 378 182 431 182 q 297 205 328 182 q 243 258 267 228 q 198 310 220 287 q 141 334 175 334 q 72 303 100 334 q 43 232 43 273 q 48 197 43 214 q 59 164 53 180 q 113 88 78 121 q 191 32 148 55 q 280 -2 234 9 q 371 -14 327 -14 q 502 9 438 -14 q 616 75 566 33 q 697 177 666 117 q 728 309 728 237 "},"9":{"x_min":39,"x_max":724,"ha":789,"o":"m 724 656 q 698 799 724 734 q 627 912 673 864 q 518 985 582 959 q 378 1012 454 1012 q 239 984 301 1012 q 132 908 176 956 q 63 794 88 860 q 39 652 39 728 q 56 541 39 592 q 104 451 73 490 q 180 388 135 412 q 281 356 225 363 q 402 366 344 349 q 329 263 367 313 q 251 165 291 213 q 237 148 247 159 q 216 125 227 137 q 196 100 205 112 q 183 81 187 87 l 276 7 q 284 0 277 7 q 300 -16 292 -8 q 315 -31 308 -24 q 323 -37 322 -38 q 373 15 335 -23 q 454 101 410 54 q 538 196 497 148 q 598 276 578 244 q 687 458 650 362 q 724 656 724 555 m 510 667 q 502 611 510 638 q 479 563 495 584 q 439 530 463 542 q 384 518 416 518 q 329 530 353 518 q 289 563 305 542 q 265 611 273 584 q 257 667 257 638 q 265 723 257 697 q 291 769 274 749 q 331 802 307 790 q 384 815 354 815 q 436 802 413 815 q 475 769 459 790 q 501 722 492 748 q 510 667 510 695 "},"l":{"x_min":30,"x_max":240,"ha":279,"o":"m 240 -1 l 240 978 q 210 1054 240 1022 q 136 1086 180 1086 q 61 1055 92 1086 q 30 979 30 1024 l 30 -1 l 240 -1 "},"4":{"x_min":8,"x_max":791,"ha":828,"o":"m 791 318 q 779 364 791 346 q 749 393 767 382 q 707 409 730 404 q 662 414 683 414 l 662 829 q 653 901 662 867 q 628 959 645 934 q 580 998 610 984 q 508 1012 550 1012 q 428 989 460 1012 q 371 926 397 966 l 35 393 q 16 359 24 377 q 8 321 8 340 q 18 274 8 293 q 46 244 29 255 q 85 228 63 233 q 130 224 107 224 l 448 224 l 448 -1 l 660 -1 l 660 224 q 705 228 681 224 q 747 243 729 232 q 778 272 766 254 q 791 318 791 290 m 446 416 l 228 416 l 446 793 l 446 416 "},"p":{"x_min":45,"x_max":761,"ha":835,"o":"m 45 647 l 45 -318 l 253 -318 l 253 55 q 423 -15 322 -15 q 563 16 500 -15 q 669 101 626 48 q 737 223 713 154 q 761 366 761 291 q 737 508 761 438 q 671 632 714 577 q 567 720 628 687 q 430 754 506 754 q 319 729 371 754 q 232 655 268 704 q 210 724 228 692 q 147 757 191 757 q 72 726 99 757 q 45 647 45 695 m 247 381 q 257 450 247 416 q 285 510 266 484 q 332 552 303 536 q 400 568 360 568 q 468 549 439 568 q 514 504 496 531 q 542 440 533 476 q 551 369 551 404 q 541 299 551 334 q 512 237 531 265 q 464 192 493 209 q 397 175 435 175 q 325 193 353 175 q 279 241 296 212 q 255 307 262 270 q 247 381 247 344 "},"‡":{"x_min":0,"x_max":0,"ha":391},"à":{"x_min":11,"x_max":729,"ha":766,"o":"m 566 882 q 553 925 566 905 q 518 954 540 945 q 484 973 514 959 q 417 1001 454 987 q 345 1028 380 1016 q 301 1042 311 1039 q 268 1048 286 1048 q 214 1026 236 1048 q 192 970 192 1003 q 205 927 192 947 q 242 897 219 907 q 277 878 246 891 q 345 850 307 865 q 416 824 382 836 q 460 811 449 812 q 491 806 475 806 q 544 828 522 806 q 566 882 566 850 m 729 -3 l 729 653 q 710 716 729 690 q 655 743 692 743 q 608 743 633 747 q 556 722 583 740 q 522 686 529 705 q 514 666 514 666 q 490 679 514 666 q 427 705 465 692 q 338 724 388 717 q 239 717 288 730 q 143 668 185 702 q 71 588 100 634 q 26 484 42 541 q 11 369 11 427 q 34 224 11 293 q 102 103 58 155 q 210 19 147 50 q 351 -12 273 -12 q 459 12 410 -12 q 539 90 508 37 q 538 78 538 90 q 538 51 538 66 q 538 20 538 35 q 538 -3 538 5 l 729 -3 m 527 376 q 519 301 527 338 q 493 235 512 265 q 446 186 475 205 q 374 168 416 168 q 305 186 333 168 q 258 233 276 204 q 230 298 239 262 q 222 370 222 334 q 230 441 222 405 q 258 506 239 477 q 307 553 277 535 q 377 572 336 572 q 446 554 418 572 q 493 509 475 537 q 518 447 510 481 q 527 376 527 412 "},"Ü":{"x_min":26,"x_max":889,"ha":949,"o":"m 889 401 l 889 898 q 856 977 889 944 q 779 1011 824 1011 q 748 1007 762 1011 q 750 1023 750 1012 q 726 1084 750 1059 q 667 1109 702 1109 q 607 1083 631 1109 q 584 1021 584 1057 q 609 964 584 988 q 667 940 634 940 l 679 940 q 673 900 673 919 l 673 396 q 614 236 673 296 q 457 177 555 177 q 300 236 359 177 q 242 396 242 296 l 242 940 q 248 939 244 940 q 255 939 251 939 q 314 964 290 939 q 338 1025 338 990 q 314 1084 338 1059 q 256 1110 290 1110 q 196 1084 220 1110 q 172 1022 172 1058 q 172 1012 172 1016 q 174 1003 173 1008 l 26 1003 l 26 401 q 58 228 26 304 q 149 98 91 151 q 285 16 207 44 q 457 -12 364 -12 q 629 16 550 -12 q 765 98 707 44 q 856 228 823 151 q 889 401 889 304 "},"ó":{"x_min":-7,"x_max":717,"ha":736,"o":"m 544 970 q 521 1024 544 1002 q 467 1047 499 1047 q 436 1041 453 1047 q 411 1034 429 1040 q 370 1019 393 1028 q 321 1001 347 1010 q 273 981 295 991 q 236 964 251 971 q 219 953 222 957 q 183 924 197 945 q 170 879 170 903 q 193 824 170 846 q 247 802 216 802 q 280 808 265 802 q 305 816 287 810 q 347 831 323 822 q 395 850 370 839 q 443 870 421 860 q 479 886 465 879 q 496 898 493 893 q 531 926 518 906 q 544 970 544 946 m 717 373 q 689 521 717 451 q 614 644 662 591 q 499 727 565 696 q 355 758 433 758 q 210 726 276 758 q 95 642 144 695 q 20 520 47 590 q -7 370 -7 449 q 20 223 -7 293 q 95 100 47 152 q 210 16 144 47 q 356 -15 277 -15 q 501 16 435 -15 q 614 100 567 47 q 689 224 662 154 q 717 373 717 294 m 508 372 q 499 299 508 336 q 472 233 491 262 q 425 185 454 204 q 355 166 395 166 q 286 185 315 166 q 239 234 257 204 q 211 300 220 263 q 203 372 203 337 q 212 442 203 406 q 240 506 222 477 q 287 553 258 535 q 355 572 315 572 q 423 553 394 572 q 472 507 453 535 q 499 442 491 479 q 508 372 508 406 "},"\u001a":{"x_min":26.296875,"x_max":583,"ha":629,"o":"m 127 702 q 67 677 91 702 q 44 617 44 652 q 68 556 44 581 l 196 426 l 45 276 l 26 253 l 142 135 l 162 155 l 313 305 l 438 176 q 466 157 449 163 q 500 151 482 151 q 558 175 534 151 q 582 235 582 199 q 573 267 582 252 q 551 301 571 278 q 507 349 531 324 q 460 395 482 374 q 430 424 438 416 l 558 555 q 583 614 583 580 q 559 676 583 651 q 500 701 535 701 q 468 691 485 701 q 435 668 458 688 q 388 623 413 648 q 342 577 364 599 q 313 546 321 555 l 187 677 q 127 702 162 702 "},"\r":{"x_min":46,"x_max":256,"ha":313,"o":"m 256 0 l 256 650 q 247 690 256 670 q 225 724 239 709 q 192 747 211 738 q 152 757 174 757 q 77 726 108 757 q 46 650 46 695 l 46 0 l 256 0 "}}}
